<svg xmlns:xlink="http://www.w3.org/1999/xlink" xmlns="http://www.w3.org/2000/svg" version="1.1" viewBox="0 0 600 600" height="600px" width="600px">
    <title>页面不见了</title>
    <defs>
        <linearGradient id="linearGradient-1" y2="67.3261502%" x2="29.5159577%" y1="66.9103226%" x1="144.588078%">
            <stop offset="0%" stop-opacity="0" stop-color="#E0E5EF"></stop>
            <stop offset="100%" stop-color="#E0E5EF"></stop>
        </linearGradient>
        <linearGradient id="linearGradient-2" y2="67.3252081%" x2="29.5159577%" y1="66.9094031%" x1="144.588078%">
            <stop offset="0%" stop-opacity="0" stop-color="#E0E5EF"></stop>
            <stop offset="100%" stop-color="#E0E5EF"></stop>
        </linearGradient>
        <linearGradient id="linearGradient-3" y2="100%" x2="40.5999348%" y1="98.8%" x1="93.4061835%">
            <stop offset="0%" stop-opacity="0" stop-color="#E0E5EF"></stop>
            <stop offset="100%" stop-color="#E0E5EF"></stop>
        </linearGradient>
        <linearGradient id="linearGradient-4" y2="100%" x2="40.7922325%" y1="98.8%" x1="92.5182204%">
            <stop offset="0%" stop-opacity="0" stop-color="#E0E5EF"></stop>
            <stop offset="100%" stop-color="#E0E5EF"></stop>
        </linearGradient>
        <linearGradient id="linearGradient-5" y2="35.8247589%" x2="-31.2147379%" y1="47.4777572%" x1="50%">
            <stop offset="0%" stop-opacity="0.237740043" stop-color="#E8EBF1"></stop>
            <stop offset="100%" stop-color="#A2ABB9"></stop>
        </linearGradient>
        <linearGradient id="linearGradient-6" y2="36.1141801%" x2="-31.2147379%" y1="47.5292548%" x1="50%">
            <stop offset="0%" stop-opacity="0.237740043" stop-color="#E8EBF1"></stop>
            <stop offset="100%" stop-color="#A2ABB9"></stop>
        </linearGradient>
        <linearGradient id="linearGradient-7" y2="29.1022124%" x2="-31.2147379%" y1="46.2815945%" x1="50%">
            <stop offset="0%" stop-opacity="0.237740043" stop-color="#E8EBF1"></stop>
            <stop offset="100%" stop-color="#A2ABB9"></stop>
        </linearGradient>
        <linearGradient id="linearGradient-8" y2="-11.2257991%" x2="50%" y1="100%" x1="50%">
            <stop offset="0%" stop-color="#A2ABB9"></stop>
            <stop offset="100%" stop-color="#E7EAF0"></stop>
        </linearGradient>
        <path id="path-9" d="M40.2389257,93.1360223 C42.6201106,93.4224806 44.5089452,93.5478062 45.9054296,93.5119989 C46.4067317,93.5119989 47.7584569,93.4403843 49.9606054,93.2971551 C52.1627538,93.153926 53.8546483,92.9748895 55.036289,92.7600457 C56.2179296,92.545202 57.4353775,92.2139846 58.6886327,91.7663934 C59.9418879,91.3188023 61.1414322,90.7727411 62.2872655,90.1282098 C63.4330988,89.4836786 64.3819921,88.8480991 65.1339452,88.2214715 C65.8858983,87.5948439 66.6736587,86.6907098 67.4972265,85.5090692 C68.3207942,84.3274286 69.0279882,82.689245 69.6188085,80.5945184 C70.2096288,78.4997918 70.5766535,76.7810418 70.7198827,75.4382684 C70.8631119,74.095495 70.9347265,72.0634312 70.9347265,69.342077 L70.9347265,69.342077 L70.9347265,40.4993036 C70.9347265,39.2460484 70.85416,37.9390822 70.6930272,36.5784051 C70.5318944,35.217728 70.3080988,34.0271356 70.0216405,33.0066278 C69.7351822,31.98612 69.3144465,30.8760939 68.7594335,29.6765497 C68.2044205,28.4770054 67.3271418,27.2147984 66.1275975,25.8899286 C64.9280533,24.5650588 63.7553645,23.49084 62.6095311,22.6672723 C61.4636978,21.8437046 60.2283462,21.1454624 58.9034765,20.5725457 C57.5786067,19.9996291 56.0747004,19.5878452 54.3917577,19.3371942 C52.708815,19.0865431 50.6677994,18.9791213 48.2687108,19.0149286 L48.2687108,19.0149286 L43.864414,19.1223504 C40.8207942,19.2297723 38.5380793,19.3909051 37.0162694,19.6057489 C35.4944595,19.8205926 33.9099869,20.3039911 32.2628515,21.0559442 C30.615716,21.8078973 29.1744725,22.7209832 27.939121,23.795202 C26.7037694,24.8694207 25.7369725,25.9078322 25.0387304,26.9104364 C24.3404882,27.9130405 23.6780533,28.9693556 23.0514257,30.0793817 C22.4247981,31.1894077 21.9145442,32.4874221 21.520664,33.9734247 C21.1267837,35.4594273 20.8224218,37.5093947 20.607578,40.123327 L20.607578,40.123327 L20.607578,69.4494989 C20.607578,71.2040562 20.7060481,72.8690952 20.9029882,74.4446161 C21.0999283,76.0201369 21.4759048,77.8373569 22.0309179,79.8962762 C22.5859309,81.9551955 23.4274022,83.700801 24.5553319,85.1330926 C25.6832616,86.5653843 26.7664322,87.7112176 27.8048436,88.5705926 C28.8432551,89.4299676 30.0517512,90.1908726 31.4303319,90.8533075 C32.8089127,91.5157424 34.0263606,91.990189 35.0826757,92.2766473 C36.1389908,92.5631056 37.8577408,92.849564 40.2389257,93.1360223 Z M47.4093358,77.2912957 L46.7648046,77.2912957 C44.5089452,77.2912957 42.7812434,76.9958856 41.5816991,76.4050653 C40.3821548,75.814245 39.3347916,74.9280145 38.4396093,73.7463739 C37.544427,72.5647332 36.989414,71.1413934 36.7745702,69.4763543 C36.5597265,67.8113153 36.4523046,65.9403843 36.4523046,63.8635614 L36.4523046,63.8635614 L36.3985936,44.8498895 C36.3627863,41.7704624 36.6134374,39.6936395 37.1505468,38.6194207 C37.6876561,37.545202 38.1889582,36.7484898 38.654453,36.229284 C39.1199478,35.7100783 39.8987564,35.1998244 40.9908788,34.6985223 C42.0830012,34.1972202 43.0229426,33.9465692 43.810703,33.9465692 L43.810703,33.9465692 L46.1739843,34.0002801 C47.8211197,34.0718947 49.2534113,34.358353 50.4708593,34.8596551 C51.6883072,35.3609572 52.5834895,35.9159702 53.1564061,36.5246942 C53.7293228,37.1334181 54.2216731,38.404577 54.6334569,40.3381707 C55.0452408,42.2717645 55.2511327,44.11584 55.2511327,45.8703973 L55.2511327,45.8703973 L55.2511327,64.1321161 C55.2511327,64.7050327 55.1526627,66.1641799 54.9557225,68.5095575 C54.7587824,70.8549351 54.4454686,72.5020705 54.0157811,73.4509637 C53.5860936,74.3998569 52.7535741,75.2771356 51.5182225,76.0827997 C50.282871,76.8884637 48.9132421,77.2912957 47.4093358,77.2912957 L47.4093358,77.2912957 Z"></path>
        <linearGradient id="linearGradient-10" y2="-11.2257991%" x2="50%" y1="100%" x1="50%">
            <stop offset="0%" stop-color="#A2ABB9"></stop>
            <stop offset="100%" stop-color="#E7EAF0"></stop>
        </linearGradient>
        <path id="path-11" d="M35.2389257,97.1360223 C37.6201106,97.4224806 39.5089452,97.5478062 40.9054296,97.5119989 C41.4067317,97.5119989 42.7584569,97.4403843 44.9606054,97.2971551 C47.1627538,97.153926 48.8546483,96.9748895 50.036289,96.7600457 C51.2179296,96.545202 52.4353775,96.2139846 53.6886327,95.7663934 C54.9418879,95.3188023 56.1414322,94.7727411 57.2872655,94.1282098 C58.4330988,93.4836786 59.3819921,92.8480991 60.1339452,92.2214715 C60.8858983,91.5948439 61.6736587,90.6907098 62.4972265,89.5090692 C63.3207942,88.3274286 64.0279882,86.689245 64.6188085,84.5945184 C65.2096288,82.4997918 65.5766535,80.7810418 65.7198827,79.4382684 C65.8631119,78.095495 65.9347265,76.0634312 65.9347265,73.342077 L65.9347265,73.342077 L65.9347265,44.4993036 C65.9347265,43.2460484 65.85416,41.9390822 65.6930272,40.5784051 C65.5318944,39.217728 65.3080988,38.0271356 65.0216405,37.0066278 C64.7351822,35.98612 64.3144465,34.8760939 63.7594335,33.6765497 C63.2044205,32.4770054 62.3271418,31.2147984 61.1275975,29.8899286 C59.9280533,28.5650588 58.7553645,27.49084 57.6095311,26.6672723 C56.4636978,25.8437046 55.2283462,25.1454624 53.9034765,24.5725457 C52.5786067,23.9996291 51.0747004,23.5878452 49.3917577,23.3371942 C47.708815,23.0865431 45.6677994,22.9791213 43.2687108,23.0149286 L43.2687108,23.0149286 L38.864414,23.1223504 C35.8207942,23.2297723 33.5380793,23.3909051 32.0162694,23.6057489 C30.4944595,23.8205926 28.9099869,24.3039911 27.2628515,25.0559442 C25.615716,25.8078973 24.1744725,26.7209832 22.939121,27.795202 C21.7037694,28.8694207 20.7369725,29.9078322 20.0387304,30.9104364 C19.3404882,31.9130405 18.6780533,32.9693556 18.0514257,34.0793817 C17.4247981,35.1894077 16.9145442,36.4874221 16.520664,37.9734247 C16.1267837,39.4594273 15.8224218,41.5093947 15.607578,44.123327 L15.607578,44.123327 L15.607578,73.4494989 C15.607578,75.2040562 15.7060481,76.8690952 15.9029882,78.4446161 C16.0999283,80.0201369 16.4759048,81.8373569 17.0309179,83.8962762 C17.5859309,85.9551955 18.4274022,87.700801 19.5553319,89.1330926 C20.6832616,90.5653843 21.7664322,91.7112176 22.8048436,92.5705926 C23.8432551,93.4299676 25.0517512,94.1908726 26.4303319,94.8533075 C27.8089127,95.5157424 29.0263606,95.990189 30.0826757,96.2766473 C31.1389908,96.5631056 32.8577408,96.849564 35.2389257,97.1360223 Z M42.4093358,81.2912957 L41.7648046,81.2912957 C39.5089452,81.2912957 37.7812434,80.9958856 36.5816991,80.4050653 C35.3821548,79.814245 34.3347916,78.9280145 33.4396093,77.7463739 C32.544427,76.5647332 31.989414,75.1413934 31.7745702,73.4763543 C31.5597265,71.8113153 31.4523046,69.9403843 31.4523046,67.8635614 L31.4523046,67.8635614 L31.3985936,48.8498895 C31.3627863,45.7704624 31.6134374,43.6936395 32.1505468,42.6194207 C32.6876561,41.545202 33.1889582,40.7484898 33.654453,40.229284 C34.1199478,39.7100783 34.8987564,39.1998244 35.9908788,38.6985223 C37.0830012,38.1972202 38.0229426,37.9465692 38.810703,37.9465692 L38.810703,37.9465692 L41.1739843,38.0002801 C42.8211197,38.0718947 44.2534113,38.358353 45.4708593,38.8596551 C46.6883072,39.3609572 47.5834895,39.9159702 48.1564061,40.5246942 C48.7293228,41.1334181 49.2216731,42.404577 49.6334569,44.3381707 C50.0452408,46.2717645 50.2511327,48.11584 50.2511327,49.8703973 L50.2511327,49.8703973 L50.2511327,68.1321161 C50.2511327,68.7050327 50.1526627,70.1641799 49.9557225,72.5095575 C49.7587824,74.8549351 49.4454686,76.5020705 49.0157811,77.4509637 C48.5860936,78.3998569 47.7535741,79.2771356 46.5182225,80.0827997 C45.282871,80.8884637 43.9132421,81.2912957 42.4093358,81.2912957 L42.4093358,81.2912957 Z"></path>
        <linearGradient id="linearGradient-12" y2="-28.9579615%" x2="95.9201389%" y1="100%" x1="50%">
            <stop offset="0%" stop-color="#A2ABB9"></stop>
            <stop offset="100%" stop-color="#E7EAF0"></stop>
        </linearGradient>
    </defs>
    <g fill-rule="evenodd" fill="none" stroke-width="1" stroke="none" id="页面不见了">
        <path opacity="0.60159418" fill="#F3F3FA" id="背景" d="M297.367308,77 C348.402047,77 395.459601,93.7621592 433.168202,121.998683 L418,122 C410.820298,122 405,127.820298 405,135 L405,135 L405,136 C405,143.179702 410.820298,149 418,149 L418,149 L463.178198,148.999242 C471.748983,158.235916 479.533899,168.191223 486.428804,178.762649 L507.876923,178.762791 C515.60891,178.762791 521.876923,185.030804 521.876923,192.762791 L521.876923,193.544186 C521.876923,199.932 517.59881,205.320607 511.751467,207.001125 L492,207 C483.163444,207 476,214.163444 476,223 L476,223 L476,228 C476,236.836556 483.163444,244 492,244 L492,244 L559.901402,243.999959 C566.852284,245.741603 572,252.03011 572,259.52093 L572,260.413953 C572,269.250509 564.836556,276.413953 556,276.413953 L520.819517,276.412835 C521.518998,283.515523 521.876923,290.716616 521.876923,298 C521.876923,420.05493 421.360544,519 297.367308,519 C198.189346,519 114.031537,455.696384 84.3182822,367.897256 L75.8924419,367.897674 C72.4862578,367.897674 69.725,365.136417 69.725,361.730233 C69.725,359.131567 71.3322058,356.908285 73.6068281,356.000174 L84,356 C91.1797017,356 97,350.179702 97,343 L97,343 L97,342 C97,334.820298 91.1797017,329 84,329 L84,329 L75.0490717,329.000249 C75.0414555,328.94684 75.0338587,328.893426 75.0262812,328.840005 L52.8540698,328.837209 C47.1770963,328.837209 42.575,324.235113 42.575,318.55814 C42.575,312.881166 47.1770963,308.27907 52.8540698,308.27907 L73.0963108,308.280676 C72.9378097,304.873341 72.8576923,301.445881 72.8576923,298 C72.8576923,265.369974 80.0416047,234.391611 92.9374566,206.513874 L57,206.516279 C41.536027,206.516279 29,193.980252 29,178.516279 L29,176.953488 C29,162.030754 40.6738617,149.834597 55.387455,148.999146 L182,149 C187.522847,149 192,144.522847 192,139 C192,133.477153 187.522847,129 182,129 L182,129 L152.69142,128.999011 C152.935414,128.796407 153.179853,128.594307 153.424735,128.392711 L138.848077,128.395349 C128.354667,128.395349 119.848077,119.888759 119.848077,109.395349 L119.848077,108.334884 C119.848077,97.8414735 128.354667,89.3348837 138.848077,89.3348837 L223.230522,89.3331487 C246.439795,81.3435511 271.388251,77 297.367308,77 Z"></path>
        <path fill-rule="nonzero" fill="url(#linearGradient-1)" id="路径" d="M181.779752,213.968125 L174.468429,213.968125 C174.468429,199.33262 162.604124,187.468314 147.968618,187.468314 C133.333113,187.468314 121.468429,199.33262 121.468429,213.968125 L116.127998,213.968125 C109.394969,213.968125 103.936912,219.900845 103.936912,227.218598 C103.936912,234.53635 109.395347,240.468314 116.127998,240.468314 L181.78013,240.468314 C188.513915,240.468314 193.971594,234.535972 193.971594,227.218598 C193.971594,219.900467 188.513537,213.968125 181.779752,213.968125 Z"></path>
        <path fill-rule="nonzero" fill="url(#linearGradient-2)" id="路径备份-2" d="M443.90225,226.627311 L438.66011,226.627311 C438.66011,216.133574 430.153532,207.627627 419.659795,207.627627 C409.165428,207.627627 400.658849,216.133574 400.658849,226.627311 L396.829534,226.627311 C392.002226,226.627311 388.08843,230.881546 388.08843,236.128099 C388.08843,241.374653 392.002226,245.627627 396.829534,245.627627 L443.90225,245.627627 C448.730189,245.627627 452.643354,241.374653 452.643354,236.128099 C452.643354,230.881546 448.730189,226.627311 443.90225,226.627311 Z"></path>
        <path transform="translate(380.954253, 231.968314) scale(-1, 1) translate(-380.954253, -231.968314)" fill-rule="nonzero" fill="url(#linearGradient-1)" id="路径备份" d="M413.779752,231.968125 L406.468429,231.968125 C406.468429,217.33262 394.604124,205.468314 379.968618,205.468314 C365.333113,205.468314 353.468429,217.33262 353.468429,231.968125 L348.127998,231.968125 C341.394969,231.968125 335.936912,237.900845 335.936912,245.218598 C335.936912,252.53635 341.395347,258.468314 348.127998,258.468314 L413.78013,258.468314 C420.513915,258.468314 425.971594,252.535972 425.971594,245.218598 C425.971594,237.900467 420.513537,231.968125 413.779752,231.968125 Z"></path>
        <path fill-rule="nonzero" fill="url(#linearGradient-2)" id="路径" d="M368.90225,138.627311 L363.66011,138.627311 C363.66011,128.133574 355.153532,119.627627 344.659795,119.627627 C334.165428,119.627627 325.658849,128.133574 325.658849,138.627311 L321.829534,138.627311 C317.002226,138.627311 313.08843,142.881546 313.08843,148.128099 C313.08843,153.374653 317.002226,157.627627 321.829534,157.627627 L368.90225,157.627627 C373.730189,157.627627 377.643354,153.374653 377.643354,148.128099 C377.643354,142.881546 373.730189,138.627311 368.90225,138.627311 Z"></path>
        <path fill="#E7EAF0" id="形状结合" d="M284.5,415 C345.879626,415 401.152405,420.00678 439.78802,428.003897 C477.575063,428.25539 508,439.574053 508,453.5 C508,464.536605 488.890416,473.935603 462.149089,477.485699 C455.766823,479.373982 448.582636,481.153843 440.691453,482.807922 C440.896873,483.861698 441,484.926358 441,486 C441,510.300529 388.1696,530 323,530 C264.367989,530 215.723701,514.054651 206.554085,493.159086 C128.319357,487.218328 73,472.596236 73,455.5 C73,433.132468 167.691775,415 284.5,415 Z"></path>
        <g fill-rule="nonzero" transform="translate(92.000000, 370.000000)" id="树备份">
            <path fill="url(#linearGradient-3)" id="路径" d="M371.3125,30.5677291 C371.395833,30.8970784 371.5,31.247012 371.625,31.6175299 L371.875,32.6055777 C371.958333,32.934927 372,33.2025233 372,33.4083665 C372,34.561089 371.6875,35.5800133 371.0625,36.4651395 C370.4375,37.3502656 369.625,37.998672 368.625,38.4103586 C368.25,38.4515272 367.854167,38.4721115 367.4375,38.4721115 C367.104167,38.5132802 366.729167,38.5338645 366.3125,38.5338645 L365.125,38.5338645 L355.375,38.6573705 L355.375,48.9701195 C355.375,50.4933599 355.40625,52.0268924 355.46875,53.5707171 C355.53125,55.1145418 355.604167,56.5039841 355.6875,57.7390438 C355.770833,59.2211155 355.875,60.6414342 356,62 L347,62 L347.1875,59.5916335 C347.229167,58.6447544 347.270833,57.3582338 347.3125,55.7320717 C347.354167,54.1059097 347.375,51.934263 347.375,49.2171315 L347.375,39.7689243 C346.666667,40.3864542 345.875,40.6952191 345,40.6952191 C344.291667,40.6952191 343.677083,40.5305445 343.15625,40.2011952 C342.635417,39.8718459 342.208333,39.4189907 341.875,38.8426295 L334.8125,38.4721115 C333.4375,38.1427623 332.291667,37.4531872 331.375,36.4033864 C330.458333,35.3535856 330,34.1082337 330,32.6673307 C330,32.4203187 330.020833,32.1938911 330.0625,31.9880478 C330.104167,31.7822045 330.166667,31.5763612 330.25,31.3705179 L331.8125,27.7888446 C331.895833,26.8831341 332.15625,26.0391766 332.59375,25.2569721 C333.03125,24.4747676 333.583333,23.7954847 334.25,23.2191235 L344.0625,5.24900397 L344.125,5.24900397 C344.916667,3.80810093 345.854167,2.57304117 346.9375,1.5438247 C348.020833,0.514608234 349.416667,0 351.125,0 C352.625,0 353.96875,0.391102256 355.15625,1.17330677 C356.34375,1.95551128 357.229167,2.98472775 357.8125,4.26095617 L365.6875,19.5139442 C367.104167,20.0079681 368.270833,20.87251 369.1875,22.1075697 C370.104167,23.3426294 370.5625,24.7629482 370.5625,26.3685259 C370.5625,27.0272244 370.458333,27.7270916 370.25,28.4681275 L371.3125,30.5677291 Z"></path>
            <path fill="url(#linearGradient-3)" id="路径" d="M411.3125,50.5677291 C411.395833,50.8970784 411.5,51.247012 411.625,51.6175299 L411.875,52.6055777 C411.958333,52.934927 412,53.2025233 412,53.4083665 C412,54.561089 411.6875,55.5800133 411.0625,56.4651395 C410.4375,57.3502656 409.625,57.998672 408.625,58.4103586 C408.25,58.4515272 407.854167,58.4721115 407.4375,58.4721115 C407.104167,58.5132802 406.729167,58.5338645 406.3125,58.5338645 L405.125,58.5338645 L395.375,58.6573705 L395.375,68.9701195 C395.375,70.4933599 395.40625,72.0268924 395.46875,73.5707171 C395.53125,75.1145418 395.604167,76.5039841 395.6875,77.7390438 C395.770833,79.2211155 395.875,80.6414342 396,82 L387,82 L387.1875,79.5916335 C387.229167,78.6447544 387.270833,77.3582338 387.3125,75.7320717 C387.354167,74.1059097 387.375,71.934263 387.375,69.2171315 L387.375,59.7689243 C386.666667,60.3864542 385.875,60.6952191 385,60.6952191 C384.291667,60.6952191 383.677083,60.5305445 383.15625,60.2011952 C382.635417,59.8718459 382.208333,59.4189907 381.875,58.8426295 L374.8125,58.4721115 C373.4375,58.1427623 372.291667,57.4531872 371.375,56.4033864 C370.458333,55.3535856 370,54.1082337 370,52.6673307 C370,52.4203187 370.020833,52.1938911 370.0625,51.9880478 C370.104167,51.7822045 370.166667,51.5763612 370.25,51.3705179 L371.8125,47.7888446 C371.895833,46.8831341 372.15625,46.0391766 372.59375,45.2569721 C373.03125,44.4747676 373.583333,43.7954847 374.25,43.2191235 L384.0625,25.249004 L384.125,25.249004 C384.916667,23.8081009 385.854167,22.5730412 386.9375,21.5438247 C388.020833,20.5146082 389.416667,20 391.125,20 C392.625,20 393.96875,20.3911023 395.15625,21.1733068 C396.34375,21.9555113 397.229167,22.9847277 397.8125,24.2609562 L405.6875,39.5139442 C407.104167,40.0079681 408.270833,40.87251 409.1875,42.1075697 C410.104167,43.3426294 410.5625,44.7629482 410.5625,46.3685259 C410.5625,47.0272244 410.458333,47.7270916 410.25,48.4681275 L411.3125,50.5677291 Z"></path>
            <path fill="url(#linearGradient-4)" id="路径" d="M58.0342261,43.3864542 C58.1512897,43.8539178 58.297619,44.3505977 58.4732143,44.876494 L58.8244047,46.2788845 C58.9414682,46.746348 59,47.1261621 59,47.4183267 C59,49.0544489 58.5610119,50.500664 57.6830357,51.7569721 C56.8050595,53.0132802 55.6636905,53.933599 54.2589286,54.5179283 C53.7321429,54.5763612 53.1760913,54.6055777 52.5907738,54.6055777 C52.1225198,54.6640106 51.5957341,54.693227 51.0104167,54.693227 L49.3422619,54.693227 L35.6458333,54.8685259 L35.6458333,69.505976 C35.6458333,71.6679947 35.6897321,73.8446215 35.7775297,76.0358565 C35.8653273,78.2270916 35.9677579,80.1992032 36.0848214,81.9521912 C36.2018849,84.0557769 36.3482143,86.0717131 36.5238095,88 L23.8809524,88 L24.1443452,84.5816733 C24.202877,83.2377159 24.2614087,81.4116866 24.3199405,79.1035857 C24.3784723,76.7954847 24.4077382,73.7131474 24.4077381,69.8565737 L24.4077381,56.4462151 C23.4126984,57.3227092 22.3005953,57.7609562 21.0714286,57.7609562 C20.0763889,57.7609562 19.2130457,57.5272244 18.4813989,57.0597609 C17.749752,56.5922974 17.1498016,55.9495352 16.6815476,55.1314741 L6.7604167,54.6055777 C4.82886905,54.1381142 3.21924603,53.1593625 1.93154762,51.6693227 C0.643849205,50.1792828 0,48.4116866 0,46.3665339 C0,46.0159362 0.0292658638,45.6945551 0.0877975915,45.4023904 C0.146329319,45.1102257 0.234126939,44.818061 0.351190452,44.5258964 L2.54613093,39.4422311 C2.66319444,38.1567065 3.02901785,36.9588314 3.64360117,35.8486056 C4.25818448,34.7383798 5.0337301,33.7742364 5.97023803,32.9561753 L19.7544642,7.45019919 L19.8422618,7.45019919 C20.954365,5.40504648 22.2713292,3.65205843 23.7931546,2.19123506 C25.31498,0.730411687 27.2757935,0 29.6755951,0 C31.7827379,0 33.6703867,0.55511288 35.3385415,1.66533864 C37.0066963,2.7755644 38.2504959,4.23638777 39.0699404,6.04780876 L50.1324403,27.6972112 C52.1225197,28.3984064 53.7614086,29.625498 55.049107,31.378486 C56.3368054,33.131474 56.9806546,35.1474103 56.9806546,37.4262948 C56.9806546,38.3612217 56.8343252,39.3545816 56.5416665,40.4063745 L58.0342261,43.3864542 Z"></path>
        </g>
        <polygon points="172.576783 466.587818 388.188571 578 516.047613 518.466987 243.759843 454.8286" opacity="0.5" fill-rule="nonzero" fill="url(#linearGradient-5)" id="Path-10"></polygon>
        <polygon points="326.576783 456.587818 564.210426 535.542712 582.161156 470.44857 397.759843 444.8286" opacity="0.5" fill-rule="nonzero" fill="url(#linearGradient-6)" id="Path-10备份-2"></polygon>
        <polygon points="270.576783 445.587818 508.258247 544.905128 509.96728 502.822127 307.4043 440.669936" opacity="0.5" fill-rule="nonzero" fill="url(#linearGradient-7)" id="Path-10备份"></polygon>
        <g fill-rule="nonzero" transform="translate(171.000000, 351.000000)" id="编组-6">
            <g transform="translate(0.000000, 67.229182)" id="4">
                <path fill="#D1D6E2" id="形状结合" d="M37.6356972,31.3397376 L37.6204039,39.3493784 L56.5828067,39.140319 L56.5646122,54.9074251 L34.888087,55.140319 L34.8874039,48.3493784 L0.0204039332,48.3866178 L0.0204039332,31.3866178 L37.6356972,31.3397376 Z M68.1443805,30.8613265 L68.1443805,46.8613265 L58.1642827,46.9267398 L58.1642827,30.9267398 L68.1443805,30.8613265 Z M44.814686,3.90937838 L46,24.7708178 L13.0623529,23.2313935 L44.814686,3.90937838 Z"></path>
                <polygon points="56.583897 39.1346837 56.583897 54.1673244 58.1517408 48.2340555 58.1634745 30.9273076" fill="#AFB7C3" id="路径-23"></polygon>
                <polygon points="68.1467574 30.8574355 69.7679027 22.5745794 69.7833197 40.9940048 68.1423083 46.907365" fill="#AFB7C3" id="路径-24"></polygon>
                <path fill="url(#linearGradient-8)" d="M56.583897,39.1346837 L58.1634745,30.9273076 L68.1467574,30.8574355 L69.7679027,22.4864798 L59.7846198,22.5039478 L64.0661061,0.25763878 L42.7973729,2.27373675e-13 L1.74584878,21.9342819 L0,31.3343885 L36.4606855,31.0792035 L34.881108,39.3975805 L56.583897,39.1346837 Z M38.0818308,22.5419218 L19.4174323,22.5745794 L40.3680614,10.5021656 L38.0818308,22.5419218 Z"></path>
            </g>
            <g transform="translate(73.814995, 0.000000)" id="0">
                <g transform="translate(45.771152, 56.263091) rotate(15.000000) translate(-45.771152, -56.263091)">
                    <use xlink:href="#path-9" fill="#C5B0B0"></use>
                    <use xlink:href="#path-9" fill="#D1D6E2"></use>
                </g>
                <g transform="translate(40.771152, 60.263091) rotate(15.000000) translate(-40.771152, -60.263091)">
                    <use xlink:href="#path-11" fill="#131313"></use>
                    <use xlink:href="#path-11" fill="url(#linearGradient-10)"></use>
                </g>
            </g>
            <g transform="translate(157.000000, 57.000000)" id="4">
                <path fill="#D1D6E2" id="形状结合" d="M37.6356972,31.3397376 L37.6204039,39.3493784 L56.5828067,39.140319 L56.5646122,54.9074251 L34.888087,55.140319 L34.8874039,48.3493784 L0.0204039332,48.3866178 L0.0204039332,31.3866178 L37.6356972,31.3397376 Z M68.1443805,30.8613265 L68.1443805,46.8613265 L58.1642827,46.9267398 L58.1642827,30.9267398 L68.1443805,30.8613265 Z M44.814686,3.90937838 L46,24.7708178 L13.0623529,23.2313935 L44.814686,3.90937838 Z"></path>
                <polygon points="56.583897 39.1346837 56.583897 54.1673244 58.1517408 48.2340555 58.1634745 30.9273076" fill="#AFB7C3" id="路径-23"></polygon>
                <polygon points="68.1467574 30.8574355 69.7679027 22.5745794 69.7833197 40.9940048 68.1423083 46.907365" fill="#AFB7C3" id="路径-24"></polygon>
                <path fill="url(#linearGradient-8)" d="M56.583897,39.1346837 L58.1634745,30.9273076 L68.1467574,30.8574355 L69.7679027,22.4864798 L59.7846198,22.5039478 L64.0661061,0.25763878 L42.7973729,2.27373675e-13 L1.74584878,21.9342819 L0,31.3343885 L36.4606855,31.0792035 L34.881108,39.3975805 L56.583897,39.1346837 Z M38.0818308,22.5419218 L19.4174323,22.5745794 L40.3680614,10.5021656 L38.0818308,22.5419218 Z"></path>
            </g>
        </g>
        <g fill-rule="nonzero" fill="url(#linearGradient-12)" transform="translate(180.000000, 356.000000) rotate(28.000000) translate(-180.000000, -356.000000) translate(157.000000, 332.000000)" id="plane">
            <polygon points="25.9010884 38.0781059 39.421289 43.9481835 46 0 0 27.1166734 12.0699878 32.8314214 41.2343864 6.23387888 17.8195436 35.5326679 17.5086966 48" id="路径"></polygon>
        </g>
        <path transform="translate(342.497198, 298.500000) rotate(-15.000000) translate(-342.497198, -298.500000)" stroke-dasharray="4" stroke-linejoin="round" stroke-linecap="round" stroke="#D1D6E2" id="路径-25" d="M193,325 C209.974468,298.149286 232.528643,287.431947 260.662522,292.847984 C279.287426,300.303722 278.057856,309.757604 277.809144,314.449818 C274.341715,320.254739 268.999779,326.795701 256.258771,320.094387 C249.63996,313.374507 253.932682,294.843327 263.469982,286.153912 C266.345534,283.508558 286.921247,258.102716 336.489239,282.49904 C350.425639,289.493416 402.757418,352.070035 467.003135,307.190177 C476.033493,300.584215 484.363913,292.353836 491.994396,282.49904"></path>
    </g>
</svg>