<?xml version="1.0" standalone="no"?><!DOCTYPE svg PUBLIC "-//W3C//DTD SVG 1.1//EN" "http://www.w3.org/Graphics/SVG/1.1/DTD/svg11.dtd"><svg t="1646207841304" class="icon" viewBox="0 0 1024 1024" version="1.1" xmlns="http://www.w3.org/2000/svg" p-id="8567" xmlns:xlink="http://www.w3.org/1999/xlink" width="200" height="200"><defs><style type="text/css"></style></defs><path d="M13.473684 512C13.473684 236.678737 236.678737 13.473684 512 13.473684S1010.526316 236.678737 1010.526316 512 787.321263 1010.526316 512 1010.526316 13.473684 787.321263 13.473684 512z" fill="#EDEEF5" p-id="8568"></path><path d="M658.782316 421.052632c90.947368-123.661474 73.404632 81.381053-11.156211 89.357473-133.227789 43.870316 11.156211-89.357474 11.156211-89.357473z" fill="#EFE7E6" p-id="8569"></path><path d="M393.916632 514.398316c3.988211 15.144421 33.522526 77.392842-32.687158 174.699789-66.236632 97.333895 152.360421 149.989053 152.360421 149.989053s207.440842-70.197895 218.597052-104.501895c68.608-58.233263-127.649684 0.808421-90.138947-213.800421-89.357474-56.643368-248.131368-6.386526-248.131368-6.386526z" fill="#EDE7E6" p-id="8570"></path><path d="M512 997.052632c176.586105 0 331.102316-94.396632 415.932632-235.466106v-0.673684c-24.495158-37.241263-192.565895-93.615158-258.506106-93.615158-130.829474 228.702316-307.415579 39.343158-304.235789 2.15579-91.351579-6.305684-201.458526 59.688421-262.575158 102.561684C188.712421 907.264 339.806316 997.052632 512 997.052632z" fill="#586ABA" p-id="8571"></path><path d="M399.117474 551.882105c5.389474 19.132632 144.653474 149.180632 270.848 117.274948-36.917895-45.460211-23.848421-116.466526-21.557895-158.746948 13.096421-28.725895-245.436632 15.952842-249.290105 41.498948z" fill="#E3DCDB" p-id="8572"></path><path d="M529.542737 186.502737c51.873684 9.566316 124.469895 14.362947 134.03621 86.959158 101.322105 422.804211-351.824842 481.872842-293.591579 38.29221 29.534316-157.157053 159.555368-125.251368 159.555369-125.251368z" fill="#F7EDEB" p-id="8573"></path><path d="M420.163368 243.954526c28.079158 19.132632 84.803368 81.92 222.288843 51.038316 11.749053 45.756632 5.874526 45.756632 37.726315 94.154105 23.255579 7.976421 90.650947-220.968421-106.765473-252.092631-231.100632-35.920842-260.769684 167.531789-201.404632 240.909473 14.443789-15.144421 3.233684-98.115368 48.154947-134.009263z" fill="#586ABA" p-id="8574"></path></svg>