<?xml version="1.0" standalone="no"?><!DOCTYPE svg PUBLIC "-//W3C//DTD SVG 1.1//EN" "http://www.w3.org/Graphics/SVG/1.1/DTD/svg11.dtd"><svg t="1646273724845" class="icon" viewBox="0 0 1024 1024" version="1.1" xmlns="http://www.w3.org/2000/svg" p-id="3799" xmlns:xlink="http://www.w3.org/1999/xlink" width="200" height="200"><defs><style type="text/css"></style></defs><path d="M79.169331 113.350554l121.006899 0 0 120.557773-121.006899 0 0-120.557773ZM324.965581 113.350554l647.967334 0 0 120.557773-647.967334 0 0-120.557773ZM79.169331 444.549837l121.006899 0 0 120.557773-121.006899 0 0-120.557773ZM324.965581 444.549837l647.967334 0 0 120.557773-647.967334 0 0-120.557773ZM79.169331 754.840781l121.006899 0 0 120.334643-121.006899 0 0-120.334643ZM324.965581 754.840781l647.967334 0 0 120.334643-647.967334 0 0-120.334643Z" p-id="3800"></path></svg>