<svg xmlns:xlink="http://www.w3.org/1999/xlink" xmlns="http://www.w3.org/2000/svg" version="1.1" viewBox="0 0 600 600" height="600px" width="600px">
    <title>暂无银行卡</title>
    <defs>
        <linearGradient id="linearGradient-1" y2="67.3261502%" x2="29.5159577%" y1="66.9103226%" x1="144.588078%">
            <stop offset="0%" stop-opacity="0" stop-color="#E0E5EF"></stop>
            <stop offset="100%" stop-color="#E0E5EF"></stop>
        </linearGradient>
        <linearGradient id="linearGradient-2" y2="67.3252081%" x2="29.5159577%" y1="66.9094031%" x1="144.588078%">
            <stop offset="0%" stop-opacity="0" stop-color="#E0E5EF"></stop>
            <stop offset="100%" stop-color="#E0E5EF"></stop>
        </linearGradient>
        <linearGradient id="linearGradient-3" y2="100%" x2="40.5999348%" y1="98.8%" x1="93.4061835%">
            <stop offset="0%" stop-opacity="0" stop-color="#E0E5EF"></stop>
            <stop offset="100%" stop-color="#E0E5EF"></stop>
        </linearGradient>
        <linearGradient id="linearGradient-4" y2="100%" x2="40.7922325%" y1="98.8%" x1="92.5182204%">
            <stop offset="0%" stop-opacity="0" stop-color="#E0E5EF"></stop>
            <stop offset="100%" stop-color="#E0E5EF"></stop>
        </linearGradient>
        <linearGradient id="linearGradient-5" y2="0%" x2="50.1791206%" y1="119.726691%" x1="50%">
            <stop offset="0%" stop-color="#A2ABB9"></stop>
            <stop offset="100%" stop-color="#E7EAF0"></stop>
        </linearGradient>
        <linearGradient id="linearGradient-6" y2="0%" x2="50.0198897%" y1="119.726691%" x1="50%">
            <stop offset="0%" stop-color="#A2ABB9"></stop>
            <stop offset="100%" stop-color="#E7EAF0"></stop>
        </linearGradient>
        <linearGradient id="linearGradient-7" y2="0.884756494%" x2="51.3665998%" y1="118.492869%" x1="50%">
            <stop offset="0%" stop-color="#A2ABB9"></stop>
            <stop offset="100%" stop-color="#E7EAF0"></stop>
        </linearGradient>
        <linearGradient id="linearGradient-8" y2="14.889569%" x2="51.3665998%" y1="98.9626838%" x1="50%">
            <stop offset="0%" stop-color="#A2ABB9"></stop>
            <stop offset="100%" stop-color="#E7EAF0"></stop>
        </linearGradient>
        <linearGradient id="linearGradient-9" y2="6.49333265%" x2="-5.54531226%" y1="104.583165%" x1="109.736195%">
            <stop offset="0%" stop-color="#A2ABB9"></stop>
            <stop offset="100%" stop-color="#E7EAF0"></stop>
        </linearGradient>
        <linearGradient id="linearGradient-10" y2="-28.9579615%" x2="95.9201389%" y1="100%" x1="50%">
            <stop offset="0%" stop-color="#A2ABB9"></stop>
            <stop offset="100%" stop-color="#E7EAF0"></stop>
        </linearGradient>
    </defs>
    <g fill-rule="evenodd" fill="none" stroke-width="1" stroke="none" id="暂无银行卡">
        <rect height="600" width="600" y="0" x="0" fill="#FFFFFF"></rect>
        <path opacity="0.60159418" fill="#F3F3FA" id="背景" d="M297.367308,77 C348.402047,77 395.459601,93.7621592 433.168202,121.998683 L418,122 C410.820298,122 405,127.820298 405,135 L405,135 L405,136 C405,143.179702 410.820298,149 418,149 L418,149 L463.178198,148.999242 C471.748983,158.235916 479.533899,168.191223 486.428804,178.762649 L507.876923,178.762791 C515.60891,178.762791 521.876923,185.030804 521.876923,192.762791 L521.876923,193.544186 C521.876923,199.932 517.59881,205.320607 511.751467,207.001125 L492,207 C483.163444,207 476,214.163444 476,223 L476,223 L476,228 C476,236.836556 483.163444,244 492,244 L492,244 L559.901402,243.999959 C566.852284,245.741603 572,252.03011 572,259.52093 L572,260.413953 C572,269.250509 564.836556,276.413953 556,276.413953 L520.819517,276.412835 C521.518998,283.515523 521.876923,290.716616 521.876923,298 C521.876923,420.05493 421.360544,519 297.367308,519 C198.189346,519 114.031537,455.696384 84.3182822,367.897256 L75.8924419,367.897674 C72.4862578,367.897674 69.725,365.136417 69.725,361.730233 C69.725,359.131567 71.3322058,356.908285 73.6068281,356.000174 L84,356 C91.1797017,356 97,350.179702 97,343 L97,343 L97,342 C97,334.820298 91.1797017,329 84,329 L84,329 L75.0490717,329.000249 C75.0414555,328.94684 75.0338587,328.893426 75.0262812,328.840005 L52.8540698,328.837209 C47.1770963,328.837209 42.575,324.235113 42.575,318.55814 C42.575,312.881166 47.1770963,308.27907 52.8540698,308.27907 L73.0963108,308.280676 C72.9378097,304.873341 72.8576923,301.445881 72.8576923,298 C72.8576923,265.369974 80.0416047,234.391611 92.9374566,206.513874 L57,206.516279 C41.536027,206.516279 29,193.980252 29,178.516279 L29,176.953488 C29,162.030754 40.6738617,149.834597 55.387455,148.999146 L182,149 C187.522847,149 192,144.522847 192,139 C192,133.477153 187.522847,129 182,129 L182,129 L152.69142,128.999011 C152.935414,128.796407 153.179853,128.594307 153.424735,128.392711 L138.848077,128.395349 C128.354667,128.395349 119.848077,119.888759 119.848077,109.395349 L119.848077,108.334884 C119.848077,97.8414735 128.354667,89.3348837 138.848077,89.3348837 L223.230522,89.3331487 C246.439795,81.3435511 271.388251,77 297.367308,77 Z"></path>
        <path fill-rule="nonzero" fill="url(#linearGradient-1)" id="路径" d="M181.779752,213.968125 L174.468429,213.968125 C174.468429,199.33262 162.604124,187.468314 147.968618,187.468314 C133.333113,187.468314 121.468429,199.33262 121.468429,213.968125 L116.127998,213.968125 C109.394969,213.968125 103.936912,219.900845 103.936912,227.218598 C103.936912,234.53635 109.395347,240.468314 116.127998,240.468314 L181.78013,240.468314 C188.513915,240.468314 193.971594,234.535972 193.971594,227.218598 C193.971594,219.900467 188.513537,213.968125 181.779752,213.968125 Z"></path>
        <path fill-rule="nonzero" fill="url(#linearGradient-2)" id="路径" d="M368.90225,138.627311 L363.66011,138.627311 C363.66011,128.133574 355.153532,119.627627 344.659795,119.627627 C334.165428,119.627627 325.658849,128.133574 325.658849,138.627311 L321.829534,138.627311 C317.002226,138.627311 313.08843,142.881546 313.08843,148.128099 C313.08843,153.374653 317.002226,157.627627 321.829534,157.627627 L368.90225,157.627627 C373.730189,157.627627 377.643354,153.374653 377.643354,148.128099 C377.643354,142.881546 373.730189,138.627311 368.90225,138.627311 Z"></path>
        <path fill="#E7EAF0" id="形状结合" d="M284.5,415 C345.879626,415 401.152405,420.00678 439.78802,428.003897 C477.575063,428.25539 508,439.574053 508,453.5 C508,464.536605 488.890416,473.935603 462.149089,477.485699 C455.766823,479.373982 448.582636,481.153843 440.691453,482.807922 C440.896873,483.861698 441,484.926358 441,486 C441,510.300529 388.1696,530 323,530 C264.367989,530 215.723701,514.054651 206.554085,493.159086 C128.319357,487.218328 73,472.596236 73,455.5 C73,433.132468 167.691775,415 284.5,415 Z"></path>
        <g fill-rule="nonzero" transform="translate(92.000000, 370.000000)" id="树备份">
            <path fill="url(#linearGradient-3)" id="路径" d="M371.3125,30.5677291 C371.395833,30.8970784 371.5,31.247012 371.625,31.6175299 L371.875,32.6055777 C371.958333,32.934927 372,33.2025233 372,33.4083665 C372,34.561089 371.6875,35.5800133 371.0625,36.4651395 C370.4375,37.3502656 369.625,37.998672 368.625,38.4103586 C368.25,38.4515272 367.854167,38.4721115 367.4375,38.4721115 C367.104167,38.5132802 366.729167,38.5338645 366.3125,38.5338645 L365.125,38.5338645 L355.375,38.6573705 L355.375,48.9701195 C355.375,50.4933599 355.40625,52.0268924 355.46875,53.5707171 C355.53125,55.1145418 355.604167,56.5039841 355.6875,57.7390438 C355.770833,59.2211155 355.875,60.6414342 356,62 L347,62 L347.1875,59.5916335 C347.229167,58.6447544 347.270833,57.3582338 347.3125,55.7320717 C347.354167,54.1059097 347.375,51.934263 347.375,49.2171315 L347.375,39.7689243 C346.666667,40.3864542 345.875,40.6952191 345,40.6952191 C344.291667,40.6952191 343.677083,40.5305445 343.15625,40.2011952 C342.635417,39.8718459 342.208333,39.4189907 341.875,38.8426295 L334.8125,38.4721115 C333.4375,38.1427623 332.291667,37.4531872 331.375,36.4033864 C330.458333,35.3535856 330,34.1082337 330,32.6673307 C330,32.4203187 330.020833,32.1938911 330.0625,31.9880478 C330.104167,31.7822045 330.166667,31.5763612 330.25,31.3705179 L331.8125,27.7888446 C331.895833,26.8831341 332.15625,26.0391766 332.59375,25.2569721 C333.03125,24.4747676 333.583333,23.7954847 334.25,23.2191235 L344.0625,5.24900397 L344.125,5.24900397 C344.916667,3.80810093 345.854167,2.57304117 346.9375,1.5438247 C348.020833,0.514608234 349.416667,0 351.125,0 C352.625,0 353.96875,0.391102256 355.15625,1.17330677 C356.34375,1.95551128 357.229167,2.98472775 357.8125,4.26095617 L365.6875,19.5139442 C367.104167,20.0079681 368.270833,20.87251 369.1875,22.1075697 C370.104167,23.3426294 370.5625,24.7629482 370.5625,26.3685259 C370.5625,27.0272244 370.458333,27.7270916 370.25,28.4681275 L371.3125,30.5677291 Z"></path>
            <path fill="url(#linearGradient-3)" id="路径" d="M411.3125,50.5677291 C411.395833,50.8970784 411.5,51.247012 411.625,51.6175299 L411.875,52.6055777 C411.958333,52.934927 412,53.2025233 412,53.4083665 C412,54.561089 411.6875,55.5800133 411.0625,56.4651395 C410.4375,57.3502656 409.625,57.998672 408.625,58.4103586 C408.25,58.4515272 407.854167,58.4721115 407.4375,58.4721115 C407.104167,58.5132802 406.729167,58.5338645 406.3125,58.5338645 L405.125,58.5338645 L395.375,58.6573705 L395.375,68.9701195 C395.375,70.4933599 395.40625,72.0268924 395.46875,73.5707171 C395.53125,75.1145418 395.604167,76.5039841 395.6875,77.7390438 C395.770833,79.2211155 395.875,80.6414342 396,82 L387,82 L387.1875,79.5916335 C387.229167,78.6447544 387.270833,77.3582338 387.3125,75.7320717 C387.354167,74.1059097 387.375,71.934263 387.375,69.2171315 L387.375,59.7689243 C386.666667,60.3864542 385.875,60.6952191 385,60.6952191 C384.291667,60.6952191 383.677083,60.5305445 383.15625,60.2011952 C382.635417,59.8718459 382.208333,59.4189907 381.875,58.8426295 L374.8125,58.4721115 C373.4375,58.1427623 372.291667,57.4531872 371.375,56.4033864 C370.458333,55.3535856 370,54.1082337 370,52.6673307 C370,52.4203187 370.020833,52.1938911 370.0625,51.9880478 C370.104167,51.7822045 370.166667,51.5763612 370.25,51.3705179 L371.8125,47.7888446 C371.895833,46.8831341 372.15625,46.0391766 372.59375,45.2569721 C373.03125,44.4747676 373.583333,43.7954847 374.25,43.2191235 L384.0625,25.249004 L384.125,25.249004 C384.916667,23.8081009 385.854167,22.5730412 386.9375,21.5438247 C388.020833,20.5146082 389.416667,20 391.125,20 C392.625,20 393.96875,20.3911023 395.15625,21.1733068 C396.34375,21.9555113 397.229167,22.9847277 397.8125,24.2609562 L405.6875,39.5139442 C407.104167,40.0079681 408.270833,40.87251 409.1875,42.1075697 C410.104167,43.3426294 410.5625,44.7629482 410.5625,46.3685259 C410.5625,47.0272244 410.458333,47.7270916 410.25,48.4681275 L411.3125,50.5677291 Z"></path>
            <path fill="url(#linearGradient-4)" id="路径" d="M58.0342261,43.3864542 C58.1512897,43.8539178 58.297619,44.3505977 58.4732143,44.876494 L58.8244047,46.2788845 C58.9414682,46.746348 59,47.1261621 59,47.4183267 C59,49.0544489 58.5610119,50.500664 57.6830357,51.7569721 C56.8050595,53.0132802 55.6636905,53.933599 54.2589286,54.5179283 C53.7321429,54.5763612 53.1760913,54.6055777 52.5907738,54.6055777 C52.1225198,54.6640106 51.5957341,54.693227 51.0104167,54.693227 L49.3422619,54.693227 L35.6458333,54.8685259 L35.6458333,69.505976 C35.6458333,71.6679947 35.6897321,73.8446215 35.7775297,76.0358565 C35.8653273,78.2270916 35.9677579,80.1992032 36.0848214,81.9521912 C36.2018849,84.0557769 36.3482143,86.0717131 36.5238095,88 L23.8809524,88 L24.1443452,84.5816733 C24.202877,83.2377159 24.2614087,81.4116866 24.3199405,79.1035857 C24.3784723,76.7954847 24.4077382,73.7131474 24.4077381,69.8565737 L24.4077381,56.4462151 C23.4126984,57.3227092 22.3005953,57.7609562 21.0714286,57.7609562 C20.0763889,57.7609562 19.2130457,57.5272244 18.4813989,57.0597609 C17.749752,56.5922974 17.1498016,55.9495352 16.6815476,55.1314741 L6.7604167,54.6055777 C4.82886905,54.1381142 3.21924603,53.1593625 1.93154762,51.6693227 C0.643849205,50.1792828 0,48.4116866 0,46.3665339 C0,46.0159362 0.0292658638,45.6945551 0.0877975915,45.4023904 C0.146329319,45.1102257 0.234126939,44.818061 0.351190452,44.5258964 L2.54613093,39.4422311 C2.66319444,38.1567065 3.02901785,36.9588314 3.64360117,35.8486056 C4.25818448,34.7383798 5.0337301,33.7742364 5.97023803,32.9561753 L19.7544642,7.45019919 L19.8422618,7.45019919 C20.954365,5.40504648 22.2713292,3.65205843 23.7931546,2.19123506 C25.31498,0.730411687 27.2757935,0 29.6755951,0 C31.7827379,0 33.6703867,0.55511288 35.3385415,1.66533864 C37.0066963,2.7755644 38.2504959,4.23638777 39.0699404,6.04780876 L50.1324403,27.6972112 C52.1225197,28.3984064 53.7614086,29.625498 55.049107,31.378486 C56.3368054,33.131474 56.9806546,35.1474103 56.9806546,37.4262948 C56.9806546,38.3612217 56.8343252,39.3545816 56.5416665,40.4063745 L58.0342261,43.3864542 Z"></path>
        </g>
        <g fill-rule="nonzero" transform="translate(405.428926, 391.733694) scale(-1, 1) rotate(-35.000000) translate(-405.428926, -391.733694) translate(381.540198, 314.497773)" id="绿植10">
            <path fill="url(#linearGradient-5)" id="形状" d="M42.8018214,118.833105 C40.769063,121.883608 38.4633548,124.782189 35.6548442,127.128544 C32.8463335,129.4749 29.5086832,131.25215 25.9124488,131.86225 C24.8278321,132.045522 23.5732204,132.069636 22.7926795,131.290733 C23.2332302,129.265103 24.4040415,127.063435 25.9435746,125.686488 C30.6771002,121.449544 36.4808767,119.211705 42.8018214,118.833105 Z M1.0243091,104.482178 C6.15049945,105.347894 10.5727664,107.390405 13.8409821,111.46337 C17.1091978,115.533923 17.7221379,120.805385 16.7356875,125.946629 C13.7571817,125.394403 11.1689464,123.465231 9.22956567,121.121287 C7.29257922,118.777343 5.92304121,116.018627 4.57026329,113.288849 C3.16241652,110.448143 1.74499257,107.573676 1.0243091,104.482178 Z M22.4736332,110.101894 C26.1512737,104.377076 33.6358468,101.439912 40.1914326,103.149641 C36.4443575,110.538369 29.1321737,114.809074 20.9053685,114.416005 C20.9748031,112.867845 21.6380234,111.404085 22.4736332,110.101894 Z M0,82.8320036 C2.61457256,83.1479055 7.78154304,85.7038422 11.5939062,88.438409 C16.3636407,92.925208 16.7414199,95.0609796 16.6661121,96.9467303 L16.6543405,97.1862681 C16.6111919,97.9415289 16.5213902,98.6705414 16.6451543,99.5121073 C13.767209,99.3336588 8.78095703,96.970664 6.06261845,93.8721349 C4.27045812,91.509216 0.428579202,85.2820521 0,82.8320036 Z M31.3055908,84.1166515 C35.5387083,83.8634477 39.5467619,85.845672 43.3273572,87.7772555 C37.1189445,93.3790888 27.6854134,94.2665079 19.5998717,92.2119397 C21.9798032,87.8520109 26.3733386,84.4108503 31.3055908,84.1166515 Z M4.17459945,64.4236255 C8.62820535,65.3001625 10.845308,68.1449082 13.4620784,70.2063187 C17.6549578,75.1249614 17.5706924,77.597459 17.4366118,82.29017 C14.8387993,81.429277 12.6288629,79.6182668 10.9025746,77.4817087 C9.17628635,75.3451507 4.76933612,69.5169764 4.17459945,64.4236255 Z M34.1465846,67.2449438 C37.63747,67.1750113 41.544963,67.2618241 44.0230607,69.7408101 C42.4476131,72.3283121 40.4986551,73.6015657 37.7332419,74.816944 C32.5400112,77.093367 26.6117313,76.9607365 21.1623108,75.3981071 C23.5232837,69.8188829 32.6764861,67.2738814 34.1465846,67.2449438 Z M6.06877306,45.2780853 C9.87809993,46.1124522 13.5964435,47.7667172 16.3522796,50.5447249 C19.1081157,53.3227326 21.0139763,56.3973506 20.4584993,60.2846322 C16.4719945,61.0321864 12.2939458,59.2332334 9.4734637,56.300892 C6.65058728,53.3685505 5.04161955,49.4426854 4.14615239,45.4589451 C4.8237385,45.1599235 5.3456953,45.12134 6.06877306,45.2780853 Z M33.5908053,49.0097974 C37.8191342,48.1802535 42.3323844,48.9085159 46.0890368,51.0330166 C41.7673303,56.2369582 37.6789551,57.55639 35.3405193,57.9282543 C27.0642673,59.5284465 24.638528,56.9700435 22.7637932,55.6172116 C25.452589,52.2266918 29.3624764,49.8417529 33.5908053,49.0097974 Z M9.78293284,23.9527954 L10.6248596,24.4328993 C14.6997704,26.7702749 18.8136813,29.3796808 21.1319017,33.4515562 C23.0569166,36.8276073 22.9755105,40.2760023 23.052128,44.1656954 C18.9650627,43.2421043 17.0654292,41.1063575 14.9225331,37.479514 C14.1733575,36.2101188 13.2585837,34.1725727 12.3909346,32.0571871 L12.1445009,31.4512695 C10.6350004,27.7090706 9.33468049,23.9293238 9.40702817,23.8876859 C9.52195444,23.8201649 9.66800657,23.8876859 9.78293284,23.9527954 Z M41.8452872,30.5652474 C43.2579225,30.5724818 44.7926671,30.7919251 45.7839061,31.8047404 C43.4207348,35.769189 41.6681092,37.765882 37.5954096,39.90244 C33.5227101,42.0414095 29.3542386,41.6989815 24.9080287,40.5438897 C28.2480733,34.5055813 34.9832314,30.5363098 41.8452872,30.5652474 Z M16.1858884,10.6697415 C19.856346,11.7838384 22.8707662,14.6221327 24.6880378,18.0222984 C26.510098,21.4200527 26.8452996,25.1168286 26.8620597,28.9775841 C20.8523737,25.1939954 16.7605197,18.4804768 16.1236367,11.3714778 C16.0996937,11.0989823 15.9273043,10.5901632 16.1858884,10.6697415 Z M47.2679203,15.5081013 C46.5472368,18.6840008 41.0379589,24.809122 39.8479932,25.5373844 C36.4025995,27.6450048 32.9308685,28.7759819 29.0904158,27.5413118 C29.5788524,23.5937436 32.4017288,20.2104581 35.8543054,18.2788746 C39.3044877,16.3472911 43.3221185,15.6913726 47.2679203,15.5081013 Z M31.5281051,8.08428404 C32.3112466,12.3514426 31.2792387,14.616608 30.3881249,17.0900224 C25.7695256,12.8120834 22.0151591,10.005704 23.904368,0.0023810909 C26.6749299,-0.11063908 30.7449636,3.81712549 31.5281051,8.08428404 Z M39.0519107,5.06022039 C42.5373196,3.27025505 45.4458345,2.83748048 47.7774555,3.76189667 C47.0448005,5.09302537 44.149679,9.26817037 41.7027657,10.9144685 C39.9507615,12.472818 35.0899948,14.7725109 31.9272079,13.5524447 C32.0794928,11.728884 33.510615,8.48320574 39.0519107,5.06022039 Z"></path>
            <path fill="url(#linearGradient-6)" id="路径-2" d="M29.1298359,151.494305 C18.3160063,111.09522 19.5407121,64.1248992 32.8039534,10.5833414 C19.4338144,40.1505052 7.01242738,111.464789 22.9334887,154.411341 C25.2356557,154.734631 27.3011048,153.762286 29.1298359,151.494305 Z"></path>
        </g>
        <g transform="translate(169.000000, 277.000000)" id="银行卡管理">
            <path fill-rule="nonzero" fill="url(#linearGradient-7)" id="路径" d="M116.015182,4.36063076 L199.461469,84.8110044 C205.516618,90.6286968 205.706583,100.522731 199.888891,106.57788 L153.723326,154.191932 C147.905634,160.243124 138.011599,160.437047 131.960408,154.619354 L48.5141203,74.1729385 C42.4629288,68.3552462 42.2690057,58.4612116 48.086698,52.4100201 L94.2522633,4.79201051 C100.069956,-1.26313863 109.718618,-1.76971312 116.015182,4.36063076 Z"></path>
            <path fill-rule="nonzero" fill="url(#linearGradient-8)" id="路径" d="M66.9566008,22.2688331 L173.693445,67.5795538 C181.34747,70.8247972 185.273424,79.8046228 181.873833,87.8187908 L156.050403,148.65523 C152.801202,156.305298 143.821376,160.235208 135.811166,156.831661 L29.0703637,111.524898 C21.4202961,108.279654 17.4903856,99.2998287 20.8939334,91.2856605 L46.7173635,30.4492209 C49.9626069,22.7951958 59.3025755,19.0235897 66.9566008,22.2688331 Z"></path>
            <path fill-rule="nonzero" fill="#D1D6E2" id="路径" d="M26.8976337,150.337216 L194.700459,150.337216 L216.071574,180.337216 C223.986802,191.537217 219.633426,200.337216 205.781778,200.337216 L13.8375081,200.337216 C0.381621042,200.337216 -3.97175408,191.537216 3.94347348,180.337216 L26.8976337,150.337216 Z"></path>
            <rect rx="16" height="116" width="180" y="67" x="27" fill-rule="nonzero" fill="#C7CDD8" id="矩形"></rect>
            <rect rx="16" height="116" width="180" y="67" x="15" fill-rule="nonzero" fill="url(#linearGradient-9)" id="矩形备份"></rect>
            <rect height="20" width="180" y="87" x="15" fill-rule="nonzero" fill="#D1D6E2" id="矩形备份-2"></rect>
            <rect height="20" width="90" y="117" x="25" fill="#E7EAF0" id="矩形备份-3"></rect>
            <rect height="20" width="60" y="117" x="125" fill="#E7EAF0" id="矩形备份-4"></rect>
            <rect height="6" width="120" y="149" x="65" fill-rule="nonzero" fill="#D1D6E2" id="矩形备份-5"></rect>
            <rect height="6" width="90" y="163" x="95" fill-rule="nonzero" fill="#D1D6E2" id="矩形备份-6"></rect>
        </g>
        <path stroke-dasharray="4" stroke-linejoin="round" stroke-linecap="round" stroke="#D1D6E2" id="路径-33" d="M318.608698,238.983324 C388.210543,254.438603 404.549542,276.005571 367.625695,303.684229 C312.239924,345.202215 260.0699,376.144302 339.990281,414.48685 C358.256044,422.543926 384.308228,429.376084 418.146832,434.983324"></path>
        <path stroke-dasharray="4" stroke-linejoin="round" stroke-linecap="round" stroke="#FFFFFF" id="路径" d="M334.159672,328.758262 C296.089224,358.610335 276.959019,384.247014 339.990281,414.48685 C358.256044,422.543926 384.308228,429.376084 418.146832,434.983324"></path>
        <g fill-rule="nonzero" fill="url(#linearGradient-10)" transform="translate(288.000000, 219.000000) scale(-1, 1) rotate(32.000000) translate(-288.000000, -219.000000) translate(265.000000, 195.000000)" id="plane">
            <polygon points="25.9010884 38.0781059 39.421289 43.9481835 46 0 0 27.1166734 12.0699878 32.8314214 41.2343864 6.23387888 17.8195436 35.5326679 17.5086966 48" id="路径"></polygon>
        </g>
    </g>
</svg>