<svg xmlns:xlink="http://www.w3.org/1999/xlink" xmlns="http://www.w3.org/2000/svg" version="1.1" viewBox="0 0 600 600" height="600px" width="600px">
    <title>暂无日程</title>
    <defs>
        <linearGradient id="linearGradient-1" y2="67.3261502%" x2="29.5159577%" y1="66.9103226%" x1="144.588078%">
            <stop offset="0%" stop-opacity="0" stop-color="#E0E5EF"></stop>
            <stop offset="100%" stop-color="#E0E5EF"></stop>
        </linearGradient>
        <linearGradient id="linearGradient-2" y2="67.3252081%" x2="29.5159577%" y1="66.9094031%" x1="144.588078%">
            <stop offset="0%" stop-opacity="0" stop-color="#E0E5EF"></stop>
            <stop offset="100%" stop-color="#E0E5EF"></stop>
        </linearGradient>
        <linearGradient id="linearGradient-3" y2="100%" x2="40.5999348%" y1="98.8%" x1="93.4061835%">
            <stop offset="0%" stop-opacity="0" stop-color="#E0E5EF"></stop>
            <stop offset="100%" stop-color="#E0E5EF"></stop>
        </linearGradient>
        <linearGradient id="linearGradient-4" y2="100%" x2="40.7922325%" y1="98.8%" x1="92.5182204%">
            <stop offset="0%" stop-opacity="0" stop-color="#E0E5EF"></stop>
            <stop offset="100%" stop-color="#E0E5EF"></stop>
        </linearGradient>
        <linearGradient id="linearGradient-5" y2="-11.2257991%" x2="50%" y1="100%" x1="50%">
            <stop offset="0%" stop-color="#A2ABB9"></stop>
            <stop offset="100%" stop-color="#E7EAF0"></stop>
        </linearGradient>
        <linearGradient id="linearGradient-6" y2="-3.58016396%" x2="28.3906467%" y1="145.713781%" x1="78.1521446%">
            <stop offset="0%" stop-color="#A2ABB9"></stop>
            <stop offset="100%" stop-color="#E7EAF0"></stop>
        </linearGradient>
        <linearGradient id="linearGradient-7" y2="-22.2262613%" x2="0%" y1="125.845796%" x1="122.553734%">
            <stop offset="0%" stop-color="#A2ABB9"></stop>
            <stop offset="100%" stop-color="#E7EAF0"></stop>
        </linearGradient>
        <linearGradient id="linearGradient-8" y2="-50.6527357%" x2="-26.322045%" y1="123.918443%" x1="125.912258%">
            <stop offset="0%" stop-color="#A2ABB9"></stop>
            <stop offset="100%" stop-color="#E7EAF0"></stop>
        </linearGradient>
        <linearGradient id="linearGradient-9" y2="-26.8681996%" x2="50%" y1="100%" x1="50%">
            <stop offset="0%" stop-color="#A2ABB9"></stop>
            <stop offset="100%" stop-color="#E7EAF0"></stop>
        </linearGradient>
    </defs>
    <g fill-rule="evenodd" fill="none" stroke-width="1" stroke="none" id="暂无日程">
        <rect height="600" width="600" y="0" x="0" fill="#FFFFFF"></rect>
        <path opacity="0.60159418" fill="#F3F3FA" id="背景" d="M297.367308,77 C348.402047,77 395.459601,93.7621592 433.168202,121.998683 L418,122 C410.820298,122 405,127.820298 405,135 L405,135 L405,136 C405,143.179702 410.820298,149 418,149 L418,149 L463.178198,148.999242 C471.748983,158.235916 479.533899,168.191223 486.428804,178.762649 L507.876923,178.762791 C515.60891,178.762791 521.876923,185.030804 521.876923,192.762791 L521.876923,193.544186 C521.876923,199.932 517.59881,205.320607 511.751467,207.001125 L492,207 C483.163444,207 476,214.163444 476,223 L476,223 L476,228 C476,236.836556 483.163444,244 492,244 L492,244 L559.901402,243.999959 C566.852284,245.741603 572,252.03011 572,259.52093 L572,260.413953 C572,269.250509 564.836556,276.413953 556,276.413953 L520.819517,276.412835 C521.518998,283.515523 521.876923,290.716616 521.876923,298 C521.876923,420.05493 421.360544,519 297.367308,519 C198.189346,519 114.031537,455.696384 84.3182822,367.897256 L75.8924419,367.897674 C72.4862578,367.897674 69.725,365.136417 69.725,361.730233 C69.725,359.131567 71.3322058,356.908285 73.6068281,356.000174 L84,356 C91.1797017,356 97,350.179702 97,343 L97,343 L97,342 C97,334.820298 91.1797017,329 84,329 L84,329 L75.0490717,329.000249 C75.0414555,328.94684 75.0338587,328.893426 75.0262812,328.840005 L52.8540698,328.837209 C47.1770963,328.837209 42.575,324.235113 42.575,318.55814 C42.575,312.881166 47.1770963,308.27907 52.8540698,308.27907 L73.0963108,308.280676 C72.9378097,304.873341 72.8576923,301.445881 72.8576923,298 C72.8576923,265.369974 80.0416047,234.391611 92.9374566,206.513874 L57,206.516279 C41.536027,206.516279 29,193.980252 29,178.516279 L29,176.953488 C29,162.030754 40.6738617,149.834597 55.387455,148.999146 L182,149 C187.522847,149 192,144.522847 192,139 C192,133.477153 187.522847,129 182,129 L182,129 L152.69142,128.999011 C152.935414,128.796407 153.179853,128.594307 153.424735,128.392711 L138.848077,128.395349 C128.354667,128.395349 119.848077,119.888759 119.848077,109.395349 L119.848077,108.334884 C119.848077,97.8414735 128.354667,89.3348837 138.848077,89.3348837 L223.230522,89.3331487 C246.439795,81.3435511 271.388251,77 297.367308,77 Z"></path>
        <path fill-rule="nonzero" fill="url(#linearGradient-1)" id="路径" d="M181.779752,213.968125 L174.468429,213.968125 C174.468429,199.33262 162.604124,187.468314 147.968618,187.468314 C133.333113,187.468314 121.468429,199.33262 121.468429,213.968125 L116.127998,213.968125 C109.394969,213.968125 103.936912,219.900845 103.936912,227.218598 C103.936912,234.53635 109.395347,240.468314 116.127998,240.468314 L181.78013,240.468314 C188.513915,240.468314 193.971594,234.535972 193.971594,227.218598 C193.971594,219.900467 188.513537,213.968125 181.779752,213.968125 Z"></path>
        <path fill-rule="nonzero" fill="url(#linearGradient-2)" id="路径" d="M368.90225,138.627311 L363.66011,138.627311 C363.66011,128.133574 355.153532,119.627627 344.659795,119.627627 C334.165428,119.627627 325.658849,128.133574 325.658849,138.627311 L321.829534,138.627311 C317.002226,138.627311 313.08843,142.881546 313.08843,148.128099 C313.08843,153.374653 317.002226,157.627627 321.829534,157.627627 L368.90225,157.627627 C373.730189,157.627627 377.643354,153.374653 377.643354,148.128099 C377.643354,142.881546 373.730189,138.627311 368.90225,138.627311 Z"></path>
        <path fill="#E7EAF0" id="形状结合" d="M284.5,415 C345.879626,415 401.152405,420.00678 439.78802,428.003897 C477.575063,428.25539 508,439.574053 508,453.5 C508,464.536605 488.890416,473.935603 462.149089,477.485699 C455.766823,479.373982 448.582636,481.153843 440.691453,482.807922 C440.896873,483.861698 441,484.926358 441,486 C441,510.300529 388.1696,530 323,530 C264.367989,530 215.723701,514.054651 206.554085,493.159086 C128.319357,487.218328 73,472.596236 73,455.5 C73,433.132468 167.691775,415 284.5,415 Z"></path>
        <g fill-rule="nonzero" transform="translate(92.000000, 370.000000)" id="树备份">
            <path fill="url(#linearGradient-3)" id="路径" d="M371.3125,30.5677291 C371.395833,30.8970784 371.5,31.247012 371.625,31.6175299 L371.875,32.6055777 C371.958333,32.934927 372,33.2025233 372,33.4083665 C372,34.561089 371.6875,35.5800133 371.0625,36.4651395 C370.4375,37.3502656 369.625,37.998672 368.625,38.4103586 C368.25,38.4515272 367.854167,38.4721115 367.4375,38.4721115 C367.104167,38.5132802 366.729167,38.5338645 366.3125,38.5338645 L365.125,38.5338645 L355.375,38.6573705 L355.375,48.9701195 C355.375,50.4933599 355.40625,52.0268924 355.46875,53.5707171 C355.53125,55.1145418 355.604167,56.5039841 355.6875,57.7390438 C355.770833,59.2211155 355.875,60.6414342 356,62 L347,62 L347.1875,59.5916335 C347.229167,58.6447544 347.270833,57.3582338 347.3125,55.7320717 C347.354167,54.1059097 347.375,51.934263 347.375,49.2171315 L347.375,39.7689243 C346.666667,40.3864542 345.875,40.6952191 345,40.6952191 C344.291667,40.6952191 343.677083,40.5305445 343.15625,40.2011952 C342.635417,39.8718459 342.208333,39.4189907 341.875,38.8426295 L334.8125,38.4721115 C333.4375,38.1427623 332.291667,37.4531872 331.375,36.4033864 C330.458333,35.3535856 330,34.1082337 330,32.6673307 C330,32.4203187 330.020833,32.1938911 330.0625,31.9880478 C330.104167,31.7822045 330.166667,31.5763612 330.25,31.3705179 L331.8125,27.7888446 C331.895833,26.8831341 332.15625,26.0391766 332.59375,25.2569721 C333.03125,24.4747676 333.583333,23.7954847 334.25,23.2191235 L344.0625,5.24900397 L344.125,5.24900397 C344.916667,3.80810093 345.854167,2.57304117 346.9375,1.5438247 C348.020833,0.514608234 349.416667,0 351.125,0 C352.625,0 353.96875,0.391102256 355.15625,1.17330677 C356.34375,1.95551128 357.229167,2.98472775 357.8125,4.26095617 L365.6875,19.5139442 C367.104167,20.0079681 368.270833,20.87251 369.1875,22.1075697 C370.104167,23.3426294 370.5625,24.7629482 370.5625,26.3685259 C370.5625,27.0272244 370.458333,27.7270916 370.25,28.4681275 L371.3125,30.5677291 Z"></path>
            <path fill="url(#linearGradient-3)" id="路径" d="M411.3125,50.5677291 C411.395833,50.8970784 411.5,51.247012 411.625,51.6175299 L411.875,52.6055777 C411.958333,52.934927 412,53.2025233 412,53.4083665 C412,54.561089 411.6875,55.5800133 411.0625,56.4651395 C410.4375,57.3502656 409.625,57.998672 408.625,58.4103586 C408.25,58.4515272 407.854167,58.4721115 407.4375,58.4721115 C407.104167,58.5132802 406.729167,58.5338645 406.3125,58.5338645 L405.125,58.5338645 L395.375,58.6573705 L395.375,68.9701195 C395.375,70.4933599 395.40625,72.0268924 395.46875,73.5707171 C395.53125,75.1145418 395.604167,76.5039841 395.6875,77.7390438 C395.770833,79.2211155 395.875,80.6414342 396,82 L387,82 L387.1875,79.5916335 C387.229167,78.6447544 387.270833,77.3582338 387.3125,75.7320717 C387.354167,74.1059097 387.375,71.934263 387.375,69.2171315 L387.375,59.7689243 C386.666667,60.3864542 385.875,60.6952191 385,60.6952191 C384.291667,60.6952191 383.677083,60.5305445 383.15625,60.2011952 C382.635417,59.8718459 382.208333,59.4189907 381.875,58.8426295 L374.8125,58.4721115 C373.4375,58.1427623 372.291667,57.4531872 371.375,56.4033864 C370.458333,55.3535856 370,54.1082337 370,52.6673307 C370,52.4203187 370.020833,52.1938911 370.0625,51.9880478 C370.104167,51.7822045 370.166667,51.5763612 370.25,51.3705179 L371.8125,47.7888446 C371.895833,46.8831341 372.15625,46.0391766 372.59375,45.2569721 C373.03125,44.4747676 373.583333,43.7954847 374.25,43.2191235 L384.0625,25.249004 L384.125,25.249004 C384.916667,23.8081009 385.854167,22.5730412 386.9375,21.5438247 C388.020833,20.5146082 389.416667,20 391.125,20 C392.625,20 393.96875,20.3911023 395.15625,21.1733068 C396.34375,21.9555113 397.229167,22.9847277 397.8125,24.2609562 L405.6875,39.5139442 C407.104167,40.0079681 408.270833,40.87251 409.1875,42.1075697 C410.104167,43.3426294 410.5625,44.7629482 410.5625,46.3685259 C410.5625,47.0272244 410.458333,47.7270916 410.25,48.4681275 L411.3125,50.5677291 Z"></path>
            <path fill="url(#linearGradient-4)" id="路径" d="M58.0342261,43.3864542 C58.1512897,43.8539178 58.297619,44.3505977 58.4732143,44.876494 L58.8244047,46.2788845 C58.9414682,46.746348 59,47.1261621 59,47.4183267 C59,49.0544489 58.5610119,50.500664 57.6830357,51.7569721 C56.8050595,53.0132802 55.6636905,53.933599 54.2589286,54.5179283 C53.7321429,54.5763612 53.1760913,54.6055777 52.5907738,54.6055777 C52.1225198,54.6640106 51.5957341,54.693227 51.0104167,54.693227 L49.3422619,54.693227 L35.6458333,54.8685259 L35.6458333,69.505976 C35.6458333,71.6679947 35.6897321,73.8446215 35.7775297,76.0358565 C35.8653273,78.2270916 35.9677579,80.1992032 36.0848214,81.9521912 C36.2018849,84.0557769 36.3482143,86.0717131 36.5238095,88 L23.8809524,88 L24.1443452,84.5816733 C24.202877,83.2377159 24.2614087,81.4116866 24.3199405,79.1035857 C24.3784723,76.7954847 24.4077382,73.7131474 24.4077381,69.8565737 L24.4077381,56.4462151 C23.4126984,57.3227092 22.3005953,57.7609562 21.0714286,57.7609562 C20.0763889,57.7609562 19.2130457,57.5272244 18.4813989,57.0597609 C17.749752,56.5922974 17.1498016,55.9495352 16.6815476,55.1314741 L6.7604167,54.6055777 C4.82886905,54.1381142 3.21924603,53.1593625 1.93154762,51.6693227 C0.643849205,50.1792828 0,48.4116866 0,46.3665339 C0,46.0159362 0.0292658638,45.6945551 0.0877975915,45.4023904 C0.146329319,45.1102257 0.234126939,44.818061 0.351190452,44.5258964 L2.54613093,39.4422311 C2.66319444,38.1567065 3.02901785,36.9588314 3.64360117,35.8486056 C4.25818448,34.7383798 5.0337301,33.7742364 5.97023803,32.9561753 L19.7544642,7.45019919 L19.8422618,7.45019919 C20.954365,5.40504648 22.2713292,3.65205843 23.7931546,2.19123506 C25.31498,0.730411687 27.2757935,0 29.6755951,0 C31.7827379,0 33.6703867,0.55511288 35.3385415,1.66533864 C37.0066963,2.7755644 38.2504959,4.23638777 39.0699404,6.04780876 L50.1324403,27.6972112 C52.1225197,28.3984064 53.7614086,29.625498 55.049107,31.378486 C56.3368054,33.131474 56.9806546,35.1474103 56.9806546,37.4262948 C56.9806546,38.3612217 56.8343252,39.3545816 56.5416665,40.4063745 L58.0342261,43.3864542 Z"></path>
        </g>
        <ellipse ry="9" rx="34.5" cy="466.098743" cx="301.5" fill-rule="nonzero" fill="#D1D6E2" id="椭圆形"></ellipse>
        <g fill-rule="nonzero" fill="url(#linearGradient-5)" transform="translate(150.000000, 215.000000)" opacity="0.300000012" id="编组-3备份">
            <path id="形状结合" d="M262,61 C268.627417,61 274,66.372583 274,73 C274,79.627417 268.627417,85 262,85 C255.372583,85 250,79.627417 250,73 C250,66.372583 255.372583,61 262,61 Z M262,66 C258.134007,66 255,69.1340068 255,73 C255,76.8659932 258.134007,80 262,80 C265.865993,80 269,76.8659932 269,73 C269,69.1340068 265.865993,66 262,66 Z"></path>
            <path id="形状结合备份-2" d="M6,91 C9.3137085,91 12,93.6862915 12,97 C12,100.313708 9.3137085,103 6,103 C2.6862915,103 0,100.313708 0,97 C0,93.6862915 2.6862915,91 6,91 Z M6,93.5 C4.06700338,93.5 2.5,95.0670034 2.5,97 C2.5,98.9329966 4.06700338,100.5 6,100.5 C7.93299662,100.5 9.5,98.9329966 9.5,97 C9.5,95.0670034 7.93299662,93.5 6,93.5 Z"></path>
            <path id="形状结合备份-7" d="M252,150 C254.209139,150 256,151.790861 256,154 C256,156.209139 254.209139,158 252,158 C249.790861,158 248,156.209139 248,154 C248,151.790861 249.790861,150 252,150 Z M252,151.666667 C250.711336,151.666667 249.666667,152.711336 249.666667,154 C249.666667,155.288664 250.711336,156.333333 252,156.333333 C253.288664,156.333333 254.333333,155.288664 254.333333,154 C254.333333,152.711336 253.288664,151.666667 252,151.666667 Z"></path>
            <path id="形状结合" d="M118,0 C119.656854,-3.04359188e-16 121,1.34314575 121,3 L121,11 L129,11 C130.656854,11 132,12.3431458 132,14 C132,15.6568542 130.656854,17 129,17 L121,17 L121,25 C121,26.6568542 119.656854,28 118,28 C116.343146,28 115,26.6568542 115,25 L115,17 L107,17 C105.343146,17 104,15.6568542 104,14 C104,12.3431458 105.343146,11 107,11 L115,11 L115,3 C115,1.34314575 116.343146,3.04359188e-16 118,0 Z"></path>
            <path id="形状结合备份-3" d="M198,27 C199.104569,27 200,27.8954305 200,29 L200,33.999 L205,34 C206.104569,34 207,34.8954305 207,36 C207,37.1045695 206.104569,38 205,38 L200,38 L200,43 C200,44.1045695 199.104569,45 198,45 C196.895431,45 196,44.1045695 196,43 L196,38 L191,38 C189.895431,38 189,37.1045695 189,36 C189,34.8954305 189.895431,34 191,34 L196,34 L196,29 C196,27.8954305 196.895431,27 198,27 Z"></path>
            <path id="形状结合备份-4" d="M293,113 C294.104569,113 295,113.895431 295,115 L295,119.999 L300,120 C301.104569,120 302,120.895431 302,122 C302,123.104569 301.104569,124 300,124 L295,124 L295,129 C295,130.104569 294.104569,131 293,131 C291.895431,131 291,130.104569 291,129 L291,124 L286,124 C284.895431,124 284,123.104569 284,122 C284,120.895431 284.895431,120 286,120 L291,120 L291,115 C291,113.895431 291.895431,113 293,113 Z"></path>
            <path id="形状结合备份-5" d="M20,155 C21.2272994,155 22.2222222,155.994923 22.2222222,157.222222 L22.222,162.777 L27.7777778,162.777778 C29.0050772,162.777778 30,163.772701 30,165 C30,166.227299 29.0050772,167.222222 27.7777778,167.222222 L22.222,167.222 L22.2222222,172.777778 C22.2222222,174.005077 21.2272994,175 20,175 C18.7727006,175 17.7777778,174.005077 17.7777778,172.777778 L17.777,167.222 L12.2222222,167.222222 C10.9949228,167.222222 10,166.227299 10,165 C10,163.772701 10.9949228,162.777778 12.2222222,162.777778 L17.777,162.777 L17.7777778,157.222222 C17.7777778,155.994923 18.7727006,155 20,155 Z"></path>
            <path id="形状结合备份-6" d="M65,223 C65.9818396,223 66.7777778,223.795938 66.7777778,224.777778 L66.777,229.222 L71.2222222,229.222222 C72.2040618,229.222222 73,230.01816 73,231 C73,231.98184 72.2040618,232.777778 71.2222222,232.777778 L66.777,232.777 L66.7777778,237.222222 C66.7777778,238.204062 65.9818396,239 65,239 C64.0181604,239 63.2222222,238.204062 63.2222222,237.222222 L63.222,232.777 L58.7777778,232.777778 C57.7959382,232.777778 57,231.98184 57,231 C57,230.01816 57.7959382,229.222222 58.7777778,229.222222 L63.222,229.222 L63.2222222,224.777778 C63.2222222,223.795938 64.0181604,223 65,223 Z"></path>
        </g>
        <g transform="translate(196.000000, 282.000000)" opacity="0.5" id="购物日历备份">
            <rect rx="12" height="148" width="155" y="0" x="0" fill-rule="nonzero" fill="url(#linearGradient-6)" id="矩形"></rect>
            <rect height="14" width="18" y="46" x="22" fill="#FFFFFF" id="矩形"></rect>
            <rect height="14" width="18" y="46" x="46" fill="#FFFFFF" id="矩形备份"></rect>
            <rect height="14" width="18" y="46" x="70" fill="#FFFFFF" id="矩形备份-2"></rect>
            <rect height="14" width="80" y="76" x="22" fill="#FFFFFF" id="矩形备份-3"></rect>
            <rect height="14" width="64" y="96" x="22" fill="#FFFFFF" id="矩形备份-4"></rect>
        </g>
        <g transform="translate(226.000000, 279.000000)" id="购物日历">
            <path fill-rule="nonzero" fill="url(#linearGradient-7)" id="路径" d="M0,23.8368063 C0,23.8368063 0.680712808,12.0106768 11.9746356,12.0106768 C17.907582,12.0106768 17.907582,12.0106768 17.907582,12.0106768 L17.907582,29.5716573 C17.907582,29.5716573 18.0523604,38.5940069 26.861373,38.6121203 C35.6703856,38.6302337 44.6784419,38.6121203 44.6784419,38.6121203 C44.6784419,38.6121203 53.6864983,38.8098929 53.6864983,29.5897707 C53.6864983,20.3696484 53.6864983,12.0106751 53.6864983,12.0106751 L101.385785,12.0106751 L101.385785,29.8054477 C101.385785,29.8054477 100.951662,38.6459898 110.448107,38.6201045 C119.944552,38.5942192 128.409954,38.6201045 128.409954,38.6201045 C128.409954,38.6201045 137.065285,38.522187 137.092418,29.69761 C137.119551,20.873033 137.092418,12.0106768 137.092418,12.0106768 L142.953081,12.0106768 C142.953081,12.0106768 155,11.1928375 155,23.8728224 C155,36.5528074 155,95.135631 155,95.135631 L136.929622,112.659255 L119.239101,95.2434687 L77.4547435,136.383546 L101.331519,160 L12.0041593,160 C12.0041593,160 0.0182255433,159.892162 0.0182255433,148.137854 C0.0182255433,136.383546 0,23.8368063 0,23.8368063 Z"></path>
            <polygon points="136.338312 178 95 135.930378 118.745124 112 136.553966 129.811195 154.308843 112 178 135.930378" fill-rule="nonzero" fill="url(#linearGradient-8)" id="路径"></polygon>
            <g fill-rule="nonzero" fill="#FFFFFF" transform="translate(127.000000, 136.000000)" id="问号">
                <path id="路径" d="M10,0 C4.47574335,0 1.89774586e-15,4.47052686 1.89774586e-15,9.98956703 C1.89774586e-15,10.1408451 0.00521648409,10.2921231 0.0104329682,10.4381847 L3.27595201,9.87480438 C3.33333333,6.21283255 6.32237872,3.26551904 10,3.26551904 C13.7141367,3.26551904 16.724048,6.27543036 16.724048,9.98435055 C16.724048,13.6932707 13.7141367,16.7083985 10,16.7083985 L9.98435055,16.7083985 L10.0260824,19.9791341 C15.5399061,19.9634846 20,15.4981742 20,9.98956703 C20,4.47052686 15.5242567,0 10,0 L10,0 Z"></path>
                <path id="路径" d="M1.89774586e-15,9.98956703 C1.89774586e-15,10.925887 0.759037331,11.6849244 1.69535733,11.6849244 C2.63167733,11.6849244 3.39071466,10.925887 3.39071466,9.98956703 C3.39071466,9.05324703 2.63167733,8.2942097 1.69535733,8.2942097 C0.759037331,8.2942097 1.89774586e-15,9.05324703 1.89774586e-15,9.98956703 L1.89774586e-15,9.98956703 Z"></path>
                <path id="路径" d="M10.0312989,25.1278039 C9.09233177,25.1278039 8.33594158,24.3661972 8.33594158,23.4324465 L8.33594158,18.4089724 C8.33594158,17.4700052 9.09754825,16.713615 10.0312989,16.713615 C10.970266,16.713615 11.7266562,17.4752217 11.7266562,18.4089724 L11.7266562,23.4324465 C11.7266562,24.3661972 10.9650496,25.1278039 10.0312989,25.1278039 Z"></path>
                <path id="路径" d="M8.362024,28.4037559 C8.362024,29.3400759 9.12106133,30.0991132 10.0573813,30.0991132 C10.9937013,30.0991132 11.7527387,29.3400759 11.7527387,28.4037559 C11.7527387,27.4674359 10.9937013,26.7083985 10.0573813,26.7083985 C9.12106133,26.7083985 8.362024,27.4674359 8.362024,28.4037559 L8.362024,28.4037559 Z"></path>
            </g>
            <rect height="14" width="18" y="56" x="22" fill="#FFFFFF" id="矩形"></rect>
            <rect height="14" width="18" y="56" x="46" fill="#FFFFFF" id="矩形备份"></rect>
            <rect height="14" width="18" y="56" x="70" fill="#FFFFFF" id="矩形备份-2"></rect>
            <rect height="14" width="80" y="86" x="22" fill="#FFFFFF" id="矩形备份-3"></rect>
            <rect height="14" width="64" y="106" x="22" fill="#FFFFFF" id="矩形备份-4"></rect>
            <polygon points="29 0 41 0 41 30 29 30" fill-rule="nonzero" fill="url(#linearGradient-9)" id="路径"></polygon>
            <polygon points="113 0 125 0 125 30 113 30" fill-rule="nonzero" fill="url(#linearGradient-9)" id="路径"></polygon>
        </g>
    </g>
</svg>