<svg xmlns:xlink="http://www.w3.org/1999/xlink" xmlns="http://www.w3.org/2000/svg" version="1.1" viewBox="0 0 600 600" height="600px" width="600px">
    <title>暂无方向</title>
    <defs>
        <linearGradient id="linearGradient-1" y2="67.3261502%" x2="29.5159577%" y1="66.9103226%" x1="144.588078%">
            <stop offset="0%" stop-opacity="0" stop-color="#E0E5EF"></stop>
            <stop offset="100%" stop-color="#E0E5EF"></stop>
        </linearGradient>
        <linearGradient id="linearGradient-2" y2="67.3252081%" x2="29.5159577%" y1="66.9094031%" x1="144.588078%">
            <stop offset="0%" stop-opacity="0" stop-color="#E0E5EF"></stop>
            <stop offset="100%" stop-color="#E0E5EF"></stop>
        </linearGradient>
        <linearGradient id="linearGradient-3" y2="100%" x2="40.5999348%" y1="98.8%" x1="93.4061835%">
            <stop offset="0%" stop-opacity="0" stop-color="#E0E5EF"></stop>
            <stop offset="100%" stop-color="#E0E5EF"></stop>
        </linearGradient>
        <linearGradient id="linearGradient-4" y2="100%" x2="40.7922325%" y1="98.8%" x1="92.5182204%">
            <stop offset="0%" stop-opacity="0" stop-color="#E0E5EF"></stop>
            <stop offset="100%" stop-color="#E0E5EF"></stop>
        </linearGradient>
        <linearGradient id="linearGradient-5" y2="-23.3163366%" x2="50%" y1="172.727405%" x1="50%">
            <stop offset="0%" stop-color="#A2ABB9"></stop>
            <stop offset="100%" stop-color="#E7EAF0"></stop>
        </linearGradient>
        <linearGradient id="linearGradient-6" y2="18.0360437%" x2="22.3249327%" y1="77.7448649%" x1="106.744073%">
            <stop offset="0%" stop-color="#A2ABB9"></stop>
            <stop offset="100%" stop-color="#E7EAF0"></stop>
        </linearGradient>
        <linearGradient id="linearGradient-7" y2="0%" x2="14.3039297%" y1="120.903663%" x1="109.845405%">
            <stop offset="0%" stop-color="#A2ABB9"></stop>
            <stop offset="100%" stop-color="#E7EAF0"></stop>
        </linearGradient>
        <linearGradient id="linearGradient-8" y2="28.4358115%" x2="20.5809565%" y1="78.2963349%" x1="64.3692062%">
            <stop offset="0%" stop-color="#A2ABB9"></stop>
            <stop offset="100%" stop-color="#E7EAF0"></stop>
        </linearGradient>
        <linearGradient id="linearGradient-9" y2="-2.8719593%" x2="0%" y1="107.447951%" x1="125.30432%">
            <stop offset="0%" stop-color="#A2ABB9"></stop>
            <stop offset="100%" stop-color="#E7EAF0"></stop>
        </linearGradient>
        <linearGradient id="linearGradient-10" y2="-2.8719593%" x2="0%" y1="107.447951%" x1="125.30432%">
            <stop offset="0%" stop-color="#A2ABB9"></stop>
            <stop offset="100%" stop-color="#E7EAF0"></stop>
        </linearGradient>
        <linearGradient id="linearGradient-11" y2="41.2767401%" x2="0%" y1="59.4782453%" x1="125.30432%">
            <stop offset="0%" stop-color="#A2ABB9"></stop>
            <stop offset="100%" stop-color="#E7EAF0"></stop>
        </linearGradient>
        <linearGradient id="linearGradient-12" y2="40.4558592%" x2="108.46519%" y1="58.3577878%" x1="-42.1613341%">
            <stop offset="0%" stop-color="#A2ABB9"></stop>
            <stop offset="100%" stop-color="#E7EAF0"></stop>
        </linearGradient>
        <linearGradient id="linearGradient-13" y2="43.8304908%" x2="0%" y1="69.1534679%" x1="157.066439%">
            <stop offset="0%" stop-color="#A2ABB9"></stop>
            <stop offset="100%" stop-color="#E7EAF0"></stop>
        </linearGradient>
        <linearGradient id="linearGradient-14" y2="80.6314361%" x2="0%" y1="39.7701974%" x1="100%">
            <stop offset="0%" stop-color="#A2ABB9"></stop>
            <stop offset="100%" stop-color="#E7EAF0"></stop>
        </linearGradient>
        <linearGradient id="linearGradient-15" y2="30.1822541%" x2="0%" y1="68.389098%" x1="67.3416172%">
            <stop offset="0%" stop-color="#A2ABB9"></stop>
            <stop offset="100%" stop-color="#E7EAF0"></stop>
        </linearGradient>
        <linearGradient id="linearGradient-16" y2="62.0725705%" x2="0%" y1="39.0762394%" x1="100%">
            <stop offset="0%" stop-color="#A2ABB9"></stop>
            <stop offset="100%" stop-color="#E7EAF0"></stop>
        </linearGradient>
        <linearGradient id="linearGradient-17" y2="54.9740913%" x2="6.36943627%" y1="45.1907966%" x1="117.035627%">
            <stop offset="0%" stop-color="#A2ABB9"></stop>
            <stop offset="100%" stop-color="#E7EAF0"></stop>
        </linearGradient>
    </defs>
    <g fill-rule="evenodd" fill="none" stroke-width="1" stroke="none" id="暂无方向">
        <rect height="600" width="600" y="0" x="0" fill="#FFFFFF"></rect>
        <path opacity="0.60159418" fill="#F3F3FA" id="背景" d="M297.367308,77 C348.402047,77 395.459601,93.7621592 433.168202,121.998683 L418,122 C410.820298,122 405,127.820298 405,135 L405,135 L405,136 C405,143.179702 410.820298,149 418,149 L418,149 L463.178198,148.999242 C471.748983,158.235916 479.533899,168.191223 486.428804,178.762649 L507.876923,178.762791 C515.60891,178.762791 521.876923,185.030804 521.876923,192.762791 L521.876923,193.544186 C521.876923,199.932 517.59881,205.320607 511.751467,207.001125 L492,207 C483.163444,207 476,214.163444 476,223 L476,223 L476,228 C476,236.836556 483.163444,244 492,244 L492,244 L559.901402,243.999959 C566.852284,245.741603 572,252.03011 572,259.52093 L572,260.413953 C572,269.250509 564.836556,276.413953 556,276.413953 L520.819517,276.412835 C521.518998,283.515523 521.876923,290.716616 521.876923,298 C521.876923,420.05493 421.360544,519 297.367308,519 C198.189346,519 114.031537,455.696384 84.3182822,367.897256 L75.8924419,367.897674 C72.4862578,367.897674 69.725,365.136417 69.725,361.730233 C69.725,359.131567 71.3322058,356.908285 73.6068281,356.000174 L84,356 C91.1797017,356 97,350.179702 97,343 L97,343 L97,342 C97,334.820298 91.1797017,329 84,329 L84,329 L75.0490717,329.000249 C75.0414555,328.94684 75.0338587,328.893426 75.0262812,328.840005 L52.8540698,328.837209 C47.1770963,328.837209 42.575,324.235113 42.575,318.55814 C42.575,312.881166 47.1770963,308.27907 52.8540698,308.27907 L73.0963108,308.280676 C72.9378097,304.873341 72.8576923,301.445881 72.8576923,298 C72.8576923,265.369974 80.0416047,234.391611 92.9374566,206.513874 L57,206.516279 C41.536027,206.516279 29,193.980252 29,178.516279 L29,176.953488 C29,162.030754 40.6738617,149.834597 55.387455,148.999146 L182,149 C187.522847,149 192,144.522847 192,139 C192,133.477153 187.522847,129 182,129 L182,129 L152.69142,128.999011 C152.935414,128.796407 153.179853,128.594307 153.424735,128.392711 L138.848077,128.395349 C128.354667,128.395349 119.848077,119.888759 119.848077,109.395349 L119.848077,108.334884 C119.848077,97.8414735 128.354667,89.3348837 138.848077,89.3348837 L223.230522,89.3331487 C246.439795,81.3435511 271.388251,77 297.367308,77 Z"></path>
        <path fill-rule="nonzero" fill="url(#linearGradient-1)" id="路径" d="M181.779752,213.968125 L174.468429,213.968125 C174.468429,199.33262 162.604124,187.468314 147.968618,187.468314 C133.333113,187.468314 121.468429,199.33262 121.468429,213.968125 L116.127998,213.968125 C109.394969,213.968125 103.936912,219.900845 103.936912,227.218598 C103.936912,234.53635 109.395347,240.468314 116.127998,240.468314 L181.78013,240.468314 C188.513915,240.468314 193.971594,234.535972 193.971594,227.218598 C193.971594,219.900467 188.513537,213.968125 181.779752,213.968125 Z"></path>
        <path fill-rule="nonzero" fill="url(#linearGradient-2)" id="路径" d="M368.90225,138.627311 L363.66011,138.627311 C363.66011,128.133574 355.153532,119.627627 344.659795,119.627627 C334.165428,119.627627 325.658849,128.133574 325.658849,138.627311 L321.829534,138.627311 C317.002226,138.627311 313.08843,142.881546 313.08843,148.128099 C313.08843,153.374653 317.002226,157.627627 321.829534,157.627627 L368.90225,157.627627 C373.730189,157.627627 377.643354,153.374653 377.643354,148.128099 C377.643354,142.881546 373.730189,138.627311 368.90225,138.627311 Z"></path>
        <path fill="#E7EAF0" id="形状结合" d="M284.5,415 C345.879626,415 401.152405,420.00678 439.78802,428.003897 C477.575063,428.25539 508,439.574053 508,453.5 C508,464.536605 488.890416,473.935603 462.149089,477.485699 C455.766823,479.373982 448.582636,481.153843 440.691453,482.807922 C440.896873,483.861698 441,484.926358 441,486 C441,510.300529 388.1696,530 323,530 C264.367989,530 215.723701,514.054651 206.554085,493.159086 C128.319357,487.218328 73,472.596236 73,455.5 C73,433.132468 167.691775,415 284.5,415 Z"></path>
        <g fill-rule="nonzero" transform="translate(92.000000, 370.000000)" id="树备份">
            <path fill="url(#linearGradient-3)" id="路径" d="M371.3125,30.5677291 C371.395833,30.8970784 371.5,31.247012 371.625,31.6175299 L371.875,32.6055777 C371.958333,32.934927 372,33.2025233 372,33.4083665 C372,34.561089 371.6875,35.5800133 371.0625,36.4651395 C370.4375,37.3502656 369.625,37.998672 368.625,38.4103586 C368.25,38.4515272 367.854167,38.4721115 367.4375,38.4721115 C367.104167,38.5132802 366.729167,38.5338645 366.3125,38.5338645 L365.125,38.5338645 L355.375,38.6573705 L355.375,48.9701195 C355.375,50.4933599 355.40625,52.0268924 355.46875,53.5707171 C355.53125,55.1145418 355.604167,56.5039841 355.6875,57.7390438 C355.770833,59.2211155 355.875,60.6414342 356,62 L347,62 L347.1875,59.5916335 C347.229167,58.6447544 347.270833,57.3582338 347.3125,55.7320717 C347.354167,54.1059097 347.375,51.934263 347.375,49.2171315 L347.375,39.7689243 C346.666667,40.3864542 345.875,40.6952191 345,40.6952191 C344.291667,40.6952191 343.677083,40.5305445 343.15625,40.2011952 C342.635417,39.8718459 342.208333,39.4189907 341.875,38.8426295 L334.8125,38.4721115 C333.4375,38.1427623 332.291667,37.4531872 331.375,36.4033864 C330.458333,35.3535856 330,34.1082337 330,32.6673307 C330,32.4203187 330.020833,32.1938911 330.0625,31.9880478 C330.104167,31.7822045 330.166667,31.5763612 330.25,31.3705179 L331.8125,27.7888446 C331.895833,26.8831341 332.15625,26.0391766 332.59375,25.2569721 C333.03125,24.4747676 333.583333,23.7954847 334.25,23.2191235 L344.0625,5.24900397 L344.125,5.24900397 C344.916667,3.80810093 345.854167,2.57304117 346.9375,1.5438247 C348.020833,0.514608234 349.416667,0 351.125,0 C352.625,0 353.96875,0.391102256 355.15625,1.17330677 C356.34375,1.95551128 357.229167,2.98472775 357.8125,4.26095617 L365.6875,19.5139442 C367.104167,20.0079681 368.270833,20.87251 369.1875,22.1075697 C370.104167,23.3426294 370.5625,24.7629482 370.5625,26.3685259 C370.5625,27.0272244 370.458333,27.7270916 370.25,28.4681275 L371.3125,30.5677291 Z"></path>
            <path fill="url(#linearGradient-3)" id="路径" d="M411.3125,50.5677291 C411.395833,50.8970784 411.5,51.247012 411.625,51.6175299 L411.875,52.6055777 C411.958333,52.934927 412,53.2025233 412,53.4083665 C412,54.561089 411.6875,55.5800133 411.0625,56.4651395 C410.4375,57.3502656 409.625,57.998672 408.625,58.4103586 C408.25,58.4515272 407.854167,58.4721115 407.4375,58.4721115 C407.104167,58.5132802 406.729167,58.5338645 406.3125,58.5338645 L405.125,58.5338645 L395.375,58.6573705 L395.375,68.9701195 C395.375,70.4933599 395.40625,72.0268924 395.46875,73.5707171 C395.53125,75.1145418 395.604167,76.5039841 395.6875,77.7390438 C395.770833,79.2211155 395.875,80.6414342 396,82 L387,82 L387.1875,79.5916335 C387.229167,78.6447544 387.270833,77.3582338 387.3125,75.7320717 C387.354167,74.1059097 387.375,71.934263 387.375,69.2171315 L387.375,59.7689243 C386.666667,60.3864542 385.875,60.6952191 385,60.6952191 C384.291667,60.6952191 383.677083,60.5305445 383.15625,60.2011952 C382.635417,59.8718459 382.208333,59.4189907 381.875,58.8426295 L374.8125,58.4721115 C373.4375,58.1427623 372.291667,57.4531872 371.375,56.4033864 C370.458333,55.3535856 370,54.1082337 370,52.6673307 C370,52.4203187 370.020833,52.1938911 370.0625,51.9880478 C370.104167,51.7822045 370.166667,51.5763612 370.25,51.3705179 L371.8125,47.7888446 C371.895833,46.8831341 372.15625,46.0391766 372.59375,45.2569721 C373.03125,44.4747676 373.583333,43.7954847 374.25,43.2191235 L384.0625,25.249004 L384.125,25.249004 C384.916667,23.8081009 385.854167,22.5730412 386.9375,21.5438247 C388.020833,20.5146082 389.416667,20 391.125,20 C392.625,20 393.96875,20.3911023 395.15625,21.1733068 C396.34375,21.9555113 397.229167,22.9847277 397.8125,24.2609562 L405.6875,39.5139442 C407.104167,40.0079681 408.270833,40.87251 409.1875,42.1075697 C410.104167,43.3426294 410.5625,44.7629482 410.5625,46.3685259 C410.5625,47.0272244 410.458333,47.7270916 410.25,48.4681275 L411.3125,50.5677291 Z"></path>
            <path fill="url(#linearGradient-4)" id="路径" d="M58.0342261,43.3864542 C58.1512897,43.8539178 58.297619,44.3505977 58.4732143,44.876494 L58.8244047,46.2788845 C58.9414682,46.746348 59,47.1261621 59,47.4183267 C59,49.0544489 58.5610119,50.500664 57.6830357,51.7569721 C56.8050595,53.0132802 55.6636905,53.933599 54.2589286,54.5179283 C53.7321429,54.5763612 53.1760913,54.6055777 52.5907738,54.6055777 C52.1225198,54.6640106 51.5957341,54.693227 51.0104167,54.693227 L49.3422619,54.693227 L35.6458333,54.8685259 L35.6458333,69.505976 C35.6458333,71.6679947 35.6897321,73.8446215 35.7775297,76.0358565 C35.8653273,78.2270916 35.9677579,80.1992032 36.0848214,81.9521912 C36.2018849,84.0557769 36.3482143,86.0717131 36.5238095,88 L23.8809524,88 L24.1443452,84.5816733 C24.202877,83.2377159 24.2614087,81.4116866 24.3199405,79.1035857 C24.3784723,76.7954847 24.4077382,73.7131474 24.4077381,69.8565737 L24.4077381,56.4462151 C23.4126984,57.3227092 22.3005953,57.7609562 21.0714286,57.7609562 C20.0763889,57.7609562 19.2130457,57.5272244 18.4813989,57.0597609 C17.749752,56.5922974 17.1498016,55.9495352 16.6815476,55.1314741 L6.7604167,54.6055777 C4.82886905,54.1381142 3.21924603,53.1593625 1.93154762,51.6693227 C0.643849205,50.1792828 0,48.4116866 0,46.3665339 C0,46.0159362 0.0292658638,45.6945551 0.0877975915,45.4023904 C0.146329319,45.1102257 0.234126939,44.818061 0.351190452,44.5258964 L2.54613093,39.4422311 C2.66319444,38.1567065 3.02901785,36.9588314 3.64360117,35.8486056 C4.25818448,34.7383798 5.0337301,33.7742364 5.97023803,32.9561753 L19.7544642,7.45019919 L19.8422618,7.45019919 C20.954365,5.40504648 22.2713292,3.65205843 23.7931546,2.19123506 C25.31498,0.730411687 27.2757935,0 29.6755951,0 C31.7827379,0 33.6703867,0.55511288 35.3385415,1.66533864 C37.0066963,2.7755644 38.2504959,4.23638777 39.0699404,6.04780876 L50.1324403,27.6972112 C52.1225197,28.3984064 53.7614086,29.625498 55.049107,31.378486 C56.3368054,33.131474 56.9806546,35.1474103 56.9806546,37.4262948 C56.9806546,38.3612217 56.8343252,39.3545816 56.5416665,40.4063745 L58.0342261,43.3864542 Z"></path>
        </g>
        <ellipse ry="9" rx="34.5" cy="466.098743" cx="301.5" fill-rule="nonzero" fill="#D1D6E2" id="椭圆形"></ellipse>
        <rect rx="6" height="230" width="12" y="225" x="292" fill-rule="nonzero" fill="url(#linearGradient-5)" id="矩形"></rect>
        <g fill-rule="nonzero" transform="translate(272.282060, 392.500000)" id="编组-4">
            <path fill="url(#linearGradient-6)" id="路径-38" d="M26.0932386,55.5 C29.4790158,30.6136534 20.7812696,17.2068228 0,15.2795082 C28.1279948,12.6937065 46.7473409,29.1612437 47.0488297,55.5 C41.2172774,55.6954801 34.2320803,55.6954801 26.0932386,55.5 Z"></path>
            <path fill="url(#linearGradient-7)" id="路径-39" d="M39.7537626,55.6466101 C45.2448443,30.5329159 38.491136,11.9840459 19.4926377,0 C43.7515645,7.36007946 61.1794069,18.4211384 66.8446795,55.6466101 C59.4413485,56.1737766 50.4110429,56.1737766 39.7537626,55.6466101 Z"></path>
            <path fill="url(#linearGradient-8)" id="路径-40" d="M71.1491792,56.0419849 C68.7206886,32.1730965 77.6266859,18.4968914 97.8671711,15.0133696 C79.0933991,14.5560994 58.1508889,13.3443305 43.1686586,56.0419849 C55.8655122,55.6500055 65.1923524,55.6500055 71.1491792,56.0419849 Z"></path>
        </g>
        <ellipse ry="13" rx="45" cy="462.098743" cx="298.666667" fill-rule="nonzero" fill="#D1D6E2" id="椭圆形"></ellipse>
        <path fill-rule="nonzero" fill="url(#linearGradient-9)" id="椭圆形" d="M285.561879,464.634207 C305.167988,464.634207 320,465.096462 320,447.272727 C320,429.448992 304.106109,415 284.5,415 C264.893891,415 249,429.448992 249,447.272727 C249,465.096462 265.955771,464.634207 285.561879,464.634207 Z"></path>
        <path fill-rule="nonzero" fill="url(#linearGradient-10)" id="椭圆形备份-6" d="M324.767944,464.9993 C336.97713,464.9993 346.213374,465.287157 346.213374,454.187897 C346.213374,443.088637 336.315873,434.090909 324.106687,434.090909 C311.897501,434.090909 302,443.088637 302,454.187897 C302,465.287157 312.558758,464.9993 324.767944,464.9993 Z"></path>
        <polygon points="219.17669 243 374.928149 251.162588 392.010808 272.881751 372.751459 292.69631 217 284.533722 236.259349 264.719163" fill-rule="nonzero" fill="url(#linearGradient-11)" id="矩形"></polygon>
        <path transform="translate(305.000000, 268.000000) rotate(3.000000) translate(-305.000000, -268.000000)" fill="#FFFFFF" id="形状结合" d="M275.013705,263.52336 C277.775128,263.52336 280.013705,265.761936 280.013705,268.52336 C280.013705,271.284783 277.775128,273.52336 275.013705,273.52336 C272.252281,273.52336 270.013705,271.284783 270.013705,268.52336 C270.013705,265.761936 272.252281,263.52336 275.013705,263.52336 Z M305,263 C307.761424,263 310,265.238576 310,268 C310,270.761424 307.761424,273 305,273 C302.238576,273 300,270.761424 300,268 C300,265.238576 302.238576,263 305,263 Z M334.986295,262.47664 C337.747719,262.47664 339.986295,264.715217 339.986295,267.47664 C339.986295,270.238064 337.747719,272.47664 334.986295,272.47664 C332.224872,272.47664 329.986295,270.238064 329.986295,267.47664 C329.986295,264.715217 332.224872,262.47664 334.986295,262.47664 Z"></path>
        <polygon points="235.465513 304.924553 351.857456 304.924553 365.436516 320.443479 351.857456 335.962405 235.465513 335.962405 249.044573 320.443479" transform="translate(300.451015, 320.443479) scale(-1, 1) translate(-300.451015, -320.443479)" fill-rule="nonzero" fill="url(#linearGradient-12)" id="矩形备份-10"></polygon>
        <polygon points="228.317108 344.565709 344.709051 344.565709 358.288111 360.084635 344.709051 375.603561 228.317108 375.603561 241.896168 360.084635" transform="translate(293.302610, 360.084635) rotate(-5.000000) translate(-293.302610, -360.084635)" fill-rule="nonzero" fill="url(#linearGradient-13)" id="矩形备份-11"></polygon>
        <g transform="translate(174.593593, 211.342398)" id="编组">
            <path transform="translate(267.374454, 33.654156) rotate(-13.000000) translate(-267.374454, -33.654156)" stroke-linecap="round" stroke-width="2" stroke="url(#linearGradient-14)" id="路径-20" d="M297.865439,42.1082287 C274.519188,44.8661871 256.323189,41.2000509 243.277444,31.1098203 C232.956803,22.7663508 236.076946,6.15415613 245.89699,6.15415613 C255.717034,6.15415613 261.672834,14.3466987 261.672834,27.075158 C261.672834,39.8036172 255.258021,54.6119343 245.89699,61.1541561"></path>
            <path transform="translate(225.565938, 84.410525) rotate(-14.000000) translate(-225.565938, -84.410525)" fill-rule="nonzero" fill="url(#linearGradient-15)" id="路径-18" d="M240.698751,80.5835492 C235.777679,74.2214089 229.697849,74.2214089 222.45926,80.5835492 C218.630978,84.1718943 216.106066,89.9104798 210.433126,89.9104798 C228.22361,96.1129049 238.312151,93.003928 240.698751,80.5835492 Z"></path>
            <path transform="translate(235.839440, 78.480312) rotate(-14.000000) translate(-235.839440, -78.480312)" stroke-linecap="round" stroke="url(#linearGradient-16)" id="路径-19" d="M247.242423,73.1504064 C245.418324,76.7036771 237.816335,80.2569478 224.436457,83.8102186"></path>
            <path transform="translate(15.423680, 213.566443) rotate(2.000000) translate(-15.423680, -213.566443)" fill-rule="nonzero" fill="url(#linearGradient-15)" id="路径-18备份" d="M30.5564923,209.739467 C25.6354208,203.377327 19.5555907,203.377327 12.317002,209.739467 C8.48871954,213.327812 5.96380757,219.066397 0.290867656,219.066397 C18.0813514,225.268822 28.169893,222.159846 30.5564923,209.739467 Z"></path>
            <path transform="translate(26.933792, 210.697717) rotate(2.000000) translate(-26.933792, -210.697717)" stroke-linecap="round" stroke="url(#linearGradient-16)" id="路径-19备份" d="M38.3367745,205.367811 C36.5126756,208.921082 28.910687,212.474353 15.5308087,216.027623"></path>
            <path transform="translate(27.803209, 190.168728) rotate(-13.000000) translate(-27.803209, -190.168728)" stroke-linejoin="round" stroke-linecap="round" stroke-width="2" stroke="url(#linearGradient-17)" id="路径-22" d="M47.0323264,184.976604 C31.6159468,191.899436 18.7965352,195.360853 8.5740917,195.360853"></path>
        </g>
    </g>
</svg>