<svg xmlns:xlink="http://www.w3.org/1999/xlink" xmlns="http://www.w3.org/2000/svg" version="1.1" viewBox="0 0 600 600" height="600px" width="600px">
    <title>无权限</title>
    <defs>
        <linearGradient id="linearGradient-1" y2="100%" x2="40.7922325%" y1="98.8%" x1="92.5182204%">
            <stop offset="0%" stop-opacity="0" stop-color="#E0E5EF"></stop>
            <stop offset="100%" stop-color="#E0E5EF"></stop>
        </linearGradient>
        <linearGradient id="linearGradient-2" y2="100%" x2="40.8959812%" y1="98.8%" x1="92.0391457%">
            <stop offset="0%" stop-opacity="0" stop-color="#E0E5EF"></stop>
            <stop offset="100%" stop-color="#E0E5EF"></stop>
        </linearGradient>
        <linearGradient id="linearGradient-3" y2="67.4197726%" x2="29.5159577%" y1="67.001698%" x1="144.588078%">
            <stop offset="0%" stop-opacity="0" stop-color="#E0E5EF"></stop>
            <stop offset="100%" stop-color="#E0E5EF"></stop>
        </linearGradient>
        <linearGradient id="linearGradient-4" y2="64.768431%" x2="29.5159577%" y1="64.4139887%" x1="144.588078%">
            <stop offset="0%" stop-opacity="0" stop-color="#E0E5EF"></stop>
            <stop offset="100%" stop-color="#E0E5EF"></stop>
        </linearGradient>
        <linearGradient id="linearGradient-5" y2="-11.2851653%" x2="50%" y1="100%" x1="50%">
            <stop offset="0%" stop-color="#A2ABB9"></stop>
            <stop offset="100%" stop-color="#E7EAF0"></stop>
        </linearGradient>
        <linearGradient id="linearGradient-6" y2="-43.2203691%" x2="50%" y1="100%" x1="50%">
            <stop offset="0%" stop-color="#A2ABB9"></stop>
            <stop offset="100%" stop-color="#E7EAF0"></stop>
        </linearGradient>
        <linearGradient id="linearGradient-7" y2="-11.2257991%" x2="50%" y1="100%" x1="50%">
            <stop offset="0%" stop-color="#A2ABB9"></stop>
            <stop offset="100%" stop-color="#E7EAF0"></stop>
        </linearGradient>
        <linearGradient id="linearGradient-8" y2="-11.2257991%" x2="50%" y1="100%" x1="50%">
            <stop offset="0%" stop-color="#A2ABB9"></stop>
            <stop offset="100%" stop-color="#E7EAF0"></stop>
        </linearGradient>
    </defs>
    <g fill-rule="evenodd" fill="none" stroke-width="1" stroke="none" id="无权限">
        <path opacity="0.60159418" fill="#F3F3FA" id="背景" d="M314.367308,66 C365.402047,66 412.459601,82.7621592 450.168202,110.998683 L435,111 C427.820298,111 422,116.820298 422,124 L422,124 L422,125 C422,132.179702 427.820298,138 435,138 L435,138 L480.178198,137.999242 C488.748983,147.235916 496.533899,157.191223 503.428804,167.762649 L524.876923,167.762791 C532.60891,167.762791 538.876923,174.030804 538.876923,181.762791 L538.876923,182.544186 C538.876923,188.932 534.59881,194.320607 528.751467,196.001125 L509,196 C500.163444,196 493,203.163444 493,212 L493,212 L493,217 C493,225.836556 500.163444,233 509,233 L509,233 L576.901402,232.999959 C583.852284,234.741603 589,241.03011 589,248.52093 L589,249.413953 C589,258.250509 581.836556,265.413953 573,265.413953 L537.819517,265.412835 C538.518998,272.515523 538.876923,279.716616 538.876923,287 C538.876923,409.05493 438.360544,508 314.367308,508 C215.189346,508 131.031537,444.696384 101.318282,356.897256 L92.8924419,356.897674 C89.4862578,356.897674 86.725,354.136417 86.725,350.730233 C86.725,348.131567 88.3322058,345.908285 90.6068281,345.000174 L101,345 C108.179702,345 114,339.179702 114,332 L114,332 L114,331 C114,323.820298 108.179702,318 101,318 L101,318 L92.0490717,318.000249 C92.0414555,317.94684 92.0338587,317.893426 92.0262812,317.840005 L69.8540698,317.837209 C64.1770963,317.837209 59.575,313.235113 59.575,307.55814 C59.575,301.881166 64.1770963,297.27907 69.8540698,297.27907 L90.0963108,297.280676 C89.9378097,293.873341 89.8576923,290.445881 89.8576923,287 C89.8576923,254.369974 97.0416047,223.391611 109.937457,195.513874 L74,195.516279 C58.536027,195.516279 46,182.980252 46,167.516279 L46,165.953488 C46,151.030754 57.6738617,138.834597 72.387455,137.999146 L199,138 C204.522847,138 209,133.522847 209,128 C209,122.477153 204.522847,118 199,118 L199,118 L169.69142,117.999011 C169.935414,117.796407 170.179853,117.594307 170.424735,117.392711 L155.848077,117.395349 C145.354667,117.395349 136.848077,108.888759 136.848077,98.3953488 L136.848077,97.3348837 C136.848077,86.8414735 145.354667,78.3348837 155.848077,78.3348837 L240.230522,78.3331487 C263.439795,70.3435511 288.388251,66 314.367308,66 Z"></path>
        <g fill-rule="nonzero" transform="translate(122.000000, 350.000000)" id="树">
            <path fill="url(#linearGradient-1)" id="路径" d="M58.0342261,43.3864542 C58.1512897,43.8539178 58.297619,44.3505977 58.4732143,44.876494 L58.8244047,46.2788845 C58.9414682,46.746348 59,47.1261621 59,47.4183267 C59,49.0544489 58.5610119,50.500664 57.6830357,51.7569721 C56.8050595,53.0132802 55.6636905,53.933599 54.2589286,54.5179283 C53.7321429,54.5763612 53.1760913,54.6055777 52.5907738,54.6055777 C52.1225198,54.6640106 51.5957341,54.693227 51.0104167,54.693227 L49.3422619,54.693227 L35.6458333,54.8685259 L35.6458333,69.505976 C35.6458333,71.6679947 35.6897321,73.8446215 35.7775297,76.0358565 C35.8653273,78.2270916 35.9677579,80.1992032 36.0848214,81.9521912 C36.2018849,84.0557769 36.3482143,86.0717131 36.5238095,88 L23.8809524,88 L24.1443452,84.5816733 C24.202877,83.2377159 24.2614087,81.4116866 24.3199405,79.1035857 C24.3784723,76.7954847 24.4077382,73.7131474 24.4077381,69.8565737 L24.4077381,56.4462151 C23.4126984,57.3227092 22.3005953,57.7609562 21.0714286,57.7609562 C20.0763889,57.7609562 19.2130457,57.5272244 18.4813989,57.0597609 C17.749752,56.5922974 17.1498016,55.9495352 16.6815476,55.1314741 L6.7604167,54.6055777 C4.82886905,54.1381142 3.21924603,53.1593625 1.93154762,51.6693227 C0.643849205,50.1792828 0,48.4116866 0,46.3665339 C0,46.0159362 0.0292658638,45.6945551 0.0877975915,45.4023904 C0.146329319,45.1102257 0.234126939,44.818061 0.351190452,44.5258964 L2.54613093,39.4422311 C2.66319444,38.1567065 3.02901785,36.9588314 3.64360117,35.8486056 C4.25818448,34.7383798 5.0337301,33.7742364 5.97023803,32.9561753 L19.7544642,7.45019919 L19.8422618,7.45019919 C20.954365,5.40504648 22.2713292,3.65205843 23.7931546,2.19123506 C25.31498,0.730411687 27.2757935,0 29.6755951,0 C31.7827379,0 33.6703867,0.55511288 35.3385415,1.66533864 C37.0066963,2.7755644 38.2504959,4.23638777 39.0699404,6.04780876 L50.1324403,27.6972112 C52.1225197,28.3984064 53.7614086,29.625498 55.049107,31.378486 C56.3368054,33.131474 56.9806546,35.1474103 56.9806546,37.4262948 C56.9806546,38.3612217 56.8343252,39.3545816 56.5416665,40.4063745 L58.0342261,43.3864542 Z"></path>
            <path fill="url(#linearGradient-1)" id="路径" d="M368.034226,43.3864542 C368.15129,43.8539178 368.297619,44.3505977 368.473214,44.876494 L368.824405,46.2788845 C368.941468,46.746348 369,47.1261621 369,47.4183267 C369,49.0544489 368.561012,50.500664 367.683036,51.7569721 C366.805059,53.0132802 365.66369,53.933599 364.258929,54.5179283 C363.732143,54.5763612 363.176091,54.6055777 362.590774,54.6055777 C362.12252,54.6640106 361.595734,54.693227 361.010417,54.693227 L359.342262,54.693227 L345.645833,54.8685259 L345.645833,69.505976 C345.645833,71.6679947 345.689732,73.8446215 345.77753,76.0358565 C345.865327,78.2270916 345.967758,80.1992032 346.084821,81.9521912 C346.201885,84.0557769 346.348214,86.0717131 346.52381,88 L333.880952,88 L334.144345,84.5816733 C334.202877,83.2377159 334.261409,81.4116866 334.319941,79.1035857 C334.378472,76.7954847 334.407738,73.7131474 334.407738,69.8565737 L334.407738,56.4462151 C333.412698,57.3227092 332.300595,57.7609562 331.071429,57.7609562 C330.076389,57.7609562 329.213046,57.5272244 328.481399,57.0597609 C327.749752,56.5922974 327.149802,55.9495352 326.681548,55.1314741 L316.760417,54.6055777 C314.828869,54.1381142 313.219246,53.1593625 311.931548,51.6693227 C310.643849,50.1792828 310,48.4116866 310,46.3665339 C310,46.0159362 310.029266,45.6945551 310.087798,45.4023904 C310.146329,45.1102257 310.234127,44.818061 310.35119,44.5258964 L312.546131,39.4422311 C312.663194,38.1567065 313.029018,36.9588314 313.643601,35.8486056 C314.258184,34.7383798 315.03373,33.7742364 315.970238,32.9561753 L329.754464,7.45019919 L329.842262,7.45019919 C330.954365,5.40504648 332.271329,3.65205843 333.793155,2.19123506 C335.31498,0.730411687 337.275793,0 339.675595,0 C341.782738,0 343.670387,0.55511288 345.338542,1.66533864 C347.006696,2.7755644 348.250496,4.23638777 349.06994,6.04780876 L360.13244,27.6972112 C362.12252,28.3984064 363.761409,29.625498 365.049107,31.378486 C366.336805,33.131474 366.980655,35.1474103 366.980655,37.4262948 C366.980655,38.3612217 366.834325,39.3545816 366.541666,40.4063745 L368.034226,43.3864542 Z"></path>
            <path fill="url(#linearGradient-2)" id="路径" d="M331.247024,53.0189244 C331.338294,53.3854582 331.452381,53.7749005 331.589286,54.187251 L331.863095,55.2868526 C331.954365,55.6533865 332,55.9511952 332,56.1802789 C332,57.4631474 331.657738,58.5971116 330.973214,59.5821713 C330.28869,60.5672311 329.39881,61.2888446 328.303571,61.747012 C327.892857,61.7928287 327.459325,61.815737 327.002976,61.815737 C326.637897,61.8615538 326.227183,61.8844621 325.770833,61.8844621 L324.470238,61.8844621 L313.791667,62.0219123 L313.791667,73.4990039 C313.791667,75.1942231 313.825893,76.9008964 313.894345,78.6190239 C313.962798,80.3371514 314.042659,81.8834661 314.133929,83.2579681 C314.225198,84.9073705 314.339286,86.4880478 314.47619,88 L304.619048,88 L304.824405,85.3197211 C304.87004,84.2659363 304.915675,82.8341634 304.96131,81.0244024 C305.006945,79.2146414 305.029762,76.7978088 305.029762,73.7739044 L305.029762,63.2589642 C304.253968,63.9462152 303.386905,64.2898407 302.428571,64.2898407 C301.652778,64.2898407 300.979663,64.1065737 300.409226,63.7400398 C299.83879,63.3735059 299.371032,62.8695219 299.005952,62.2280876 L291.270833,61.815737 C289.764881,61.4492032 288.509921,60.6817729 287.505952,59.5134462 C286.501984,58.3451195 286,56.9591633 286,55.3555777 C286,55.0806773 286.022817,54.8286852 286.068452,54.5996016 C286.114087,54.3705179 286.18254,54.1414342 286.27381,53.9123506 L287.985119,49.9262948 C288.076389,48.9183267 288.361607,47.9790837 288.840774,47.1085658 C289.31994,46.2380478 289.924603,45.4820717 290.654762,44.8406374 L301.401786,24.8416335 L301.470238,24.8416335 C302.337301,23.2380478 303.364087,21.8635458 304.550595,20.7181275 C305.737103,19.5727092 307.265873,19 309.136905,19 C310.779762,19 312.251488,19.435259 313.552083,20.3057769 C314.852678,21.1762948 315.822421,22.3217131 316.461309,23.7420319 L325.086309,40.7171315 C326.637897,41.2669323 327.915674,42.2290837 328.919643,43.6035856 C329.923611,44.9780876 330.425595,46.5587649 330.425595,48.3456175 C330.425595,49.0786852 330.311508,49.8575697 330.083333,50.6822709 L331.247024,53.0189244 Z"></path>
        </g>
        <path fill="#E7EAF0" id="形状结合" d="M284.5,415 C345.879626,415 401.152405,420.00678 439.78802,428.003897 C477.575063,428.25539 508,439.574053 508,453.5 C508,464.536605 488.890416,473.935603 462.149089,477.485699 C455.766823,479.373982 448.582636,481.153843 440.691453,482.807922 C440.896873,483.861698 441,484.926358 441,486 C441,510.300529 388.1696,530 323,530 C264.367989,530 215.723701,514.054651 206.554085,493.159086 C128.319357,487.218328 73,472.596236 73,455.5 C73,433.132468 167.691775,415 284.5,415 Z"></path>
        <ellipse ry="9" rx="39" cy="458.098743" cx="356" fill-rule="nonzero" fill="#D1D6E2" id="椭圆形"></ellipse>
        <path fill="#D1D6E2" id="路径-14" d="M267.329288,450.326705 C267.329288,450.326705 261.125588,447.685716 248.718189,442.403737 L267.329288,442.403737 L241.659239,421.602876 L280.269029,435.964791 L298.991525,428.18744 L301.22039,442.403737 L339.523688,425.921629 L308.532471,452.852516 L339.523688,452.852516 L317.688159,457.755695 L333.816184,467.613218 L313.055884,460.996722 L355.64682,491.20017 C319.362533,475.786748 301.22039,468.663977 301.22039,469.831858 C301.22039,470.999739 303.65775,475.76693 308.532471,484.133431 L290.857006,474.24659 L287.613676,484.133431 L283.671959,478.01299 C263.211948,488.632507 252.981942,493.028233 252.981942,491.20017 C252.981942,489.372106 257.764391,483.720913 267.329288,474.24659 L202.704173,481.392234 L262.908305,462.916338 L235.57119,462.916338 L258.691583,456.602876 L200.469177,450.326705 C245.042584,450.326705 267.329288,450.326705 267.329288,450.326705 Z"></path>
        <path fill="#909AA9" id="路径-14备份-2" d="M285.282311,452.142775 C285.282311,452.142775 283.864323,451.346677 281.028346,449.754482 L285.282311,449.754482 L279.414871,445 L288.239966,448.282723 L292.519394,446.505043 L293.028849,449.754482 L301.783888,445.987143 L294.700181,452.142775 L301.783888,452.142775 L296.79291,453.263501 L300.479316,455.51665 L295.734105,454.004308 L305.469176,460.907953 C297.175624,457.384885 293.028849,455.756823 293.028849,456.023767 C293.028849,456.290711 293.58596,457.380355 294.700181,459.292698 L290.660075,457.032849 L289.918743,459.292698 L289.017779,457.89374 C284.341205,460.321058 282.002918,461.325796 282.002918,460.907953 C282.002918,460.49011 283.096049,459.198408 285.282311,457.032849 L270.510856,458.666139 L284.271801,454.443077 L278.023317,454.443077 L283.307979,453 L270.053399,452.744356 C280.206007,452.343302 285.282311,452.142775 285.282311,452.142775 Z"></path>
        <path fill-rule="nonzero" fill="url(#linearGradient-3)" id="路径" d="M445.379464,162.3125 C445.379464,168.25 439.81942,173 432.796205,173 L393.875893,173 C386.852679,172.525 381,168.0125 381,161.8375 C381,157.8 383.633705,154.2375 387.437946,152.3375 C387.145313,151.625 386.852679,150.9125 386.852679,150.2 C386.852679,146.1625 390.65692,142.6 395.631696,142.6 C397.680134,142.6 399.435938,143.3125 400.899107,144.2625 C404.410714,138.8 410.848661,135 418.457143,135 C428.991964,135 437.478348,142.3625 437.478348,151.3875 L437.478348,152.3375 C442.160491,154 445.379464,157.8 445.379464,162.3125 Z"></path>
        <path fill-rule="nonzero" fill="url(#linearGradient-4)" id="路径" d="M212,208.9375 C212,216.75 204.054545,223 194.018182,223 L138.4,223 C128.363636,222.375 120,216.4375 120,208.3125 C120,203 123.763636,198.3125 129.2,195.8125 C128.781818,194.875 128.363636,193.9375 128.363636,193 C128.363636,187.6875 133.8,183 140.909091,183 C143.836364,183 146.345455,183.9375 148.436364,185.1875 C153.454545,178 162.654545,173 173.527273,173 C188.581818,173 200.709091,182.6875 200.709091,194.5625 L200.709091,195.8125 C207.4,198 212,203 212,208.9375 Z"></path>
        <path stroke-width="2" stroke="url(#linearGradient-5)" id="形状结合" d="M278.242419,216 C294.533469,216 301.169002,229.060712 301.169002,236.722603 C309.72653,237.963632 327,247.022658 327,263.752796 C327,280.482934 313.324025,288.503462 308.82304,292.054105 C308.057873,292.657714 307.110459,293.233803 306.10248,293.816242 L305.744406,294.022128 C305.384213,294.228387 305.01826,294.435934 304.651894,294.646258 L304.102707,294.964012 C304.0418,294.999591 303.980957,295.035267 303.920201,295.071049 L303.556914,295.287048 C299.395773,297.786757 295.887715,300.850611 301.169002,306.743415 C306.271694,312.436947 306.613712,315.465076 302.195055,315.827802 L294.533469,315.827802 L294.533469,446.425288 L287.880546,453 L275.16117,453 L263.246943,435.056013 L263.246943,427.482992 L272.602331,421.751453 L272.602331,409.560863 L265.685944,402.629099 L265.685944,387.01227 L271.017544,376.848625 L271.017544,351.870471 L263.246943,344.846474 L263.246943,315.827802 L256.643857,315.827802 C250.6158,315.833718 250.6158,312.805589 256.643857,306.743415 C261.425394,301.644913 259.648734,296.824222 249.983787,292.054105 C242.007309,288.471606 229.510872,278.426262 231.145679,263.752796 C232.487875,250.408118 240.987267,241.398053 256.643857,236.722603 C260.182198,222.907534 267.381719,216 278.242419,216 Z M279.5,230 C272.044156,230 266,236.044156 266,243.5 C266,250.955844 272.044156,257 279.5,257 C286.955844,257 293,250.955844 293,243.5 C293,236.044156 286.955844,230 279.5,230 Z"></path>
        <path fill-rule="nonzero" fill="url(#linearGradient-6)" id="形状结合备份" d="M286.242419,216 C302.533469,216 309.169002,229.060712 309.169002,236.722603 C317.72653,237.963632 335,247.022658 335,263.752796 C335,280.482934 321.324025,288.503462 316.82304,292.054105 C316.192902,292.551195 315.439165,293.02962 314.629789,293.508299 L314.279705,293.713518 C313.98546,293.884638 313.685357,294.056135 313.382491,294.228871 L313.017924,294.436805 C308.327387,297.114326 303.275392,300.167387 309.169002,306.743415 C314.271694,312.436947 314.613712,315.465076 310.195055,315.827802 L302.533469,315.827802 L302.533469,446.425288 L295.880546,453 L283.16117,453 L271.246943,435.056013 L271.246943,427.482992 L280.602331,421.751453 L280.602331,409.560863 L273.685944,402.629099 L273.685944,387.01227 L279.017544,376.848625 L279.017544,351.870471 L271.246943,344.846474 L271.246943,315.827802 L264.643857,315.827802 C258.6158,315.833718 258.6158,312.805589 264.643857,306.743415 C269.425394,301.644913 267.648734,296.824222 257.983787,292.054105 C250.007309,288.471606 237.510872,278.426262 239.145679,263.752796 C240.487875,250.408118 248.987267,241.398053 264.643857,236.722603 C268.182198,222.907534 275.381719,216 286.242419,216 Z M287.5,230 C280.044156,230 274,236.044156 274,243.5 C274,250.955844 280.044156,257 287.5,257 C294.955844,257 301,250.955844 301,243.5 C301,236.044156 294.955844,230 287.5,230 Z"></path>
        <g fill-rule="nonzero" fill="url(#linearGradient-7)" transform="translate(180.000000, 165.000000)" id="编组-3">
            <path id="形状结合" d="M232,71 C238.627417,71 244,76.372583 244,83 C244,89.627417 238.627417,95 232,95 C225.372583,95 220,89.627417 220,83 C220,76.372583 225.372583,71 232,71 Z M232,76 C228.134007,76 225,79.1340068 225,83 C225,86.8659932 228.134007,90 232,90 C235.865993,90 239,86.8659932 239,83 C239,79.1340068 235.865993,76 232,76 Z"></path>
            <path id="形状结合备份-2" d="M6,101 C9.3137085,101 12,103.686292 12,107 C12,110.313708 9.3137085,113 6,113 C2.6862915,113 0,110.313708 0,107 C0,103.686292 2.6862915,101 6,101 Z M6,103.5 C4.06700338,103.5 2.5,105.067003 2.5,107 C2.5,108.932997 4.06700338,110.5 6,110.5 C7.93299662,110.5 9.5,108.932997 9.5,107 C9.5,105.067003 7.93299662,103.5 6,103.5 Z"></path>
            <path id="形状结合备份-7" d="M212,180 C214.209139,180 216,181.790861 216,184 C216,186.209139 214.209139,188 212,188 C209.790861,188 208,186.209139 208,184 C208,181.790861 209.790861,180 212,180 Z M212,181.666667 C210.711336,181.666667 209.666667,182.711336 209.666667,184 C209.666667,185.288664 210.711336,186.333333 212,186.333333 C213.288664,186.333333 214.333333,185.288664 214.333333,184 C214.333333,182.711336 213.288664,181.666667 212,181.666667 Z"></path>
            <path id="形状结合" d="M88,0 C89.6568542,-3.04359188e-16 91,1.34314575 91,3 L91,11 L99,11 C100.656854,11 102,12.3431458 102,14 C102,15.6568542 100.656854,17 99,17 L91,17 L91,25 C91,26.6568542 89.6568542,28 88,28 C86.3431458,28 85,26.6568542 85,25 L85,17 L77,17 C75.3431458,17 74,15.6568542 74,14 C74,12.3431458 75.3431458,11 77,11 L85,11 L85,3 C85,1.34314575 86.3431458,3.04359188e-16 88,0 Z"></path>
            <path id="形状结合备份-3" d="M168,47 C169.104569,47 170,47.8954305 170,49 L170,53.999 L175,54 C176.104569,54 177,54.8954305 177,56 C177,57.1045695 176.104569,58 175,58 L170,58 L170,63 C170,64.1045695 169.104569,65 168,65 C166.895431,65 166,64.1045695 166,63 L166,58 L161,58 C159.895431,58 159,57.1045695 159,56 C159,54.8954305 159.895431,54 161,54 L166,54 L166,49 C166,47.8954305 166.895431,47 168,47 Z"></path>
            <path id="形状结合备份-4" d="M183,123 C184.104569,123 185,123.895431 185,125 L185,129.999 L190,130 C191.104569,130 192,130.895431 192,132 C192,133.104569 191.104569,134 190,134 L185,134 L185,139 C185,140.104569 184.104569,141 183,141 C181.895431,141 181,140.104569 181,139 L181,134 L176,134 C174.895431,134 174,133.104569 174,132 C174,130.895431 174.895431,130 176,130 L181,130 L181,125 C181,123.895431 181.895431,123 183,123 Z"></path>
            <path id="形状结合备份-5" d="M20,165 C21.2272994,165 22.2222222,165.994923 22.2222222,167.222222 L22.222,172.777 L27.7777778,172.777778 C29.0050772,172.777778 30,173.772701 30,175 C30,176.227299 29.0050772,177.222222 27.7777778,177.222222 L22.222,177.222 L22.2222222,182.777778 C22.2222222,184.005077 21.2272994,185 20,185 C18.7727006,185 17.7777778,184.005077 17.7777778,182.777778 L17.777,177.222 L12.2222222,177.222222 C10.9949228,177.222222 10,176.227299 10,175 C10,173.772701 10.9949228,172.777778 12.2222222,172.777778 L17.777,172.777 L17.7777778,167.222222 C17.7777778,165.994923 18.7727006,165 20,165 Z"></path>
            <path id="形状结合备份-6" d="M65,213 C65.9818396,213 66.7777778,213.795938 66.7777778,214.777778 L66.777,219.222 L71.2222222,219.222222 C72.2040618,219.222222 73,220.01816 73,221 C73,221.98184 72.2040618,222.777778 71.2222222,222.777778 L66.777,222.777 L66.7777778,227.222222 C66.7777778,228.204062 65.9818396,229 65,229 C64.0181604,229 63.2222222,228.204062 63.2222222,227.222222 L63.222,222.777 L58.7777778,222.777778 C57.7959382,222.777778 57,221.98184 57,221 C57,220.01816 57.7959382,219.222222 58.7777778,219.222222 L63.222,219.222 L63.2222222,214.777778 C63.2222222,213.795938 64.0181604,213 65,213 Z"></path>
        </g>
        <g fill-rule="nonzero" fill="url(#linearGradient-7)" transform="translate(180.000000, 165.000000)" id="编组-3备份">
            <path id="形状结合" d="M232,71 C238.627417,71 244,76.372583 244,83 C244,89.627417 238.627417,95 232,95 C225.372583,95 220,89.627417 220,83 C220,76.372583 225.372583,71 232,71 Z M232,76 C228.134007,76 225,79.1340068 225,83 C225,86.8659932 228.134007,90 232,90 C235.865993,90 239,86.8659932 239,83 C239,79.1340068 235.865993,76 232,76 Z"></path>
            <path id="形状结合备份-2" d="M6,101 C9.3137085,101 12,103.686292 12,107 C12,110.313708 9.3137085,113 6,113 C2.6862915,113 0,110.313708 0,107 C0,103.686292 2.6862915,101 6,101 Z M6,103.5 C4.06700338,103.5 2.5,105.067003 2.5,107 C2.5,108.932997 4.06700338,110.5 6,110.5 C7.93299662,110.5 9.5,108.932997 9.5,107 C9.5,105.067003 7.93299662,103.5 6,103.5 Z"></path>
            <path id="形状结合备份-7" d="M212,180 C214.209139,180 216,181.790861 216,184 C216,186.209139 214.209139,188 212,188 C209.790861,188 208,186.209139 208,184 C208,181.790861 209.790861,180 212,180 Z M212,181.666667 C210.711336,181.666667 209.666667,182.711336 209.666667,184 C209.666667,185.288664 210.711336,186.333333 212,186.333333 C213.288664,186.333333 214.333333,185.288664 214.333333,184 C214.333333,182.711336 213.288664,181.666667 212,181.666667 Z"></path>
            <path id="形状结合" d="M88,0 C89.6568542,-3.04359188e-16 91,1.34314575 91,3 L91,11 L99,11 C100.656854,11 102,12.3431458 102,14 C102,15.6568542 100.656854,17 99,17 L91,17 L91,25 C91,26.6568542 89.6568542,28 88,28 C86.3431458,28 85,26.6568542 85,25 L85,17 L77,17 C75.3431458,17 74,15.6568542 74,14 C74,12.3431458 75.3431458,11 77,11 L85,11 L85,3 C85,1.34314575 86.3431458,3.04359188e-16 88,0 Z"></path>
            <path id="形状结合备份-3" d="M168,47 C169.104569,47 170,47.8954305 170,49 L170,53.999 L175,54 C176.104569,54 177,54.8954305 177,56 C177,57.1045695 176.104569,58 175,58 L170,58 L170,63 C170,64.1045695 169.104569,65 168,65 C166.895431,65 166,64.1045695 166,63 L166,58 L161,58 C159.895431,58 159,57.1045695 159,56 C159,54.8954305 159.895431,54 161,54 L166,54 L166,49 C166,47.8954305 166.895431,47 168,47 Z"></path>
            <path id="形状结合备份-4" d="M183,123 C184.104569,123 185,123.895431 185,125 L185,129.999 L190,130 C191.104569,130 192,130.895431 192,132 C192,133.104569 191.104569,134 190,134 L185,134 L185,139 C185,140.104569 184.104569,141 183,141 C181.895431,141 181,140.104569 181,139 L181,134 L176,134 C174.895431,134 174,133.104569 174,132 C174,130.895431 174.895431,130 176,130 L181,130 L181,125 C181,123.895431 181.895431,123 183,123 Z"></path>
            <path id="形状结合备份-5" d="M20,165 C21.2272994,165 22.2222222,165.994923 22.2222222,167.222222 L22.222,172.777 L27.7777778,172.777778 C29.0050772,172.777778 30,173.772701 30,175 C30,176.227299 29.0050772,177.222222 27.7777778,177.222222 L22.222,177.222 L22.2222222,182.777778 C22.2222222,184.005077 21.2272994,185 20,185 C18.7727006,185 17.7777778,184.005077 17.7777778,182.777778 L17.777,177.222 L12.2222222,177.222222 C10.9949228,177.222222 10,176.227299 10,175 C10,173.772701 10.9949228,172.777778 12.2222222,172.777778 L17.777,172.777 L17.7777778,167.222222 C17.7777778,165.994923 18.7727006,165 20,165 Z"></path>
            <path id="形状结合备份-6" d="M65,213 C65.9818396,213 66.7777778,213.795938 66.7777778,214.777778 L66.777,219.222 L71.2222222,219.222222 C72.2040618,219.222222 73,220.01816 73,221 C73,221.98184 72.2040618,222.777778 71.2222222,222.777778 L66.777,222.777 L66.7777778,227.222222 C66.7777778,228.204062 65.9818396,229 65,229 C64.0181604,229 63.2222222,228.204062 63.2222222,227.222222 L63.222,222.777 L58.7777778,222.777778 C57.7959382,222.777778 57,221.98184 57,221 C57,220.01816 57.7959382,219.222222 58.7777778,219.222222 L63.222,219.222 L63.2222222,214.777778 C63.2222222,213.795938 64.0181604,213 65,213 Z"></path>
        </g>
        <g fill-rule="nonzero" fill="url(#linearGradient-8)" transform="translate(317.000000, 360.000000)" id="锁">
            <path id="形状" d="M71.499961,97 L6.500039,97 C2.91048618,97 0,94.1045888 0,90.5334368 L0,45.2667184 C0,41.6954112 2.91048618,38.8 6.500039,38.8 L13.000078,38.8 L13.000078,25.8667184 C13.000078,11.578696 24.6415547,0 39.000078,0 C53.3586013,0 65.000078,11.578696 65.000078,25.8667184 L65.000078,38.8 L71.500117,38.8 C75.0896698,38.8 78,41.6954112 78,45.2667184 L78,90.5334368 C78,94.1045888 75.0895138,97 71.499961,97 Z M35.7499805,70.5397968 L35.7499805,80.8334368 C35.7499805,82.6173056 37.2034296,84.0667184 38.999922,84.0667184 C40.7964144,84.0667184 42.2500195,82.6173056 42.2500195,80.8334368 L42.2500195,70.5397968 C46.0267719,69.2010416 48.7499025,65.6486688 48.7499025,61.4334368 C48.7499025,56.0751568 44.3858112,51.7334368 38.999922,51.7334368 C33.6140328,51.7334368 29.2499415,56.0751568 29.2499415,61.4334368 C29.2499415,65.6486688 31.9730721,69.2010416 35.7499805,70.5397968 L35.7499805,70.5397968 Z M52,25.8667184 C52,18.7242592 46.1791836,12.9334368 38.999922,12.9334368 C31.8206604,12.9334368 26,18.7244144 26,25.8667184 L26,38.8 L52,38.8 L52,25.8667184 L52,25.8667184 Z"></path>
        </g>
    </g>
</svg>