<svg xmlns:xlink="http://www.w3.org/1999/xlink" xmlns="http://www.w3.org/2000/svg" version="1.1" viewBox="0 0 600 600" height="600px" width="600px">
    <title>暂无信号</title>
    <defs>
        <linearGradient id="linearGradient-1" y2="67.4197726%" x2="29.5159577%" y1="67.001698%" x1="144.588078%">
            <stop offset="0%" stop-opacity="0" stop-color="#E0E5EF"></stop>
            <stop offset="100%" stop-color="#E0E5EF"></stop>
        </linearGradient>
        <linearGradient id="linearGradient-2" y2="100%" x2="40.7922325%" y1="98.8%" x1="92.5182204%">
            <stop offset="0%" stop-opacity="0" stop-color="#E0E5EF"></stop>
            <stop offset="100%" stop-color="#E0E5EF"></stop>
        </linearGradient>
        <linearGradient id="linearGradient-3" y2="100%" x2="40.8959812%" y1="98.8%" x1="92.0391457%">
            <stop offset="0%" stop-opacity="0" stop-color="#E0E5EF"></stop>
            <stop offset="100%" stop-color="#E0E5EF"></stop>
        </linearGradient>
        <linearGradient id="linearGradient-4" y2="64.768431%" x2="29.5159577%" y1="64.4139887%" x1="144.588078%">
            <stop offset="0%" stop-opacity="0" stop-color="#E0E5EF"></stop>
            <stop offset="100%" stop-color="#E0E5EF"></stop>
        </linearGradient>
        <linearGradient id="linearGradient-5" y2="32.8320042%" x2="-24.6889881%" y1="46.4543019%" x1="40.6437549%">
            <stop offset="0%" stop-opacity="0.237740043" stop-color="#E8EBF1"></stop>
            <stop offset="100%" stop-color="#A2ABB9"></stop>
        </linearGradient>
        <linearGradient id="linearGradient-6" y2="38.3966263%" x2="0%" y1="60.7668944%" x1="67.3416172%">
            <stop offset="0%" stop-color="#A2ABB9"></stop>
            <stop offset="100%" stop-color="#E7EAF0"></stop>
        </linearGradient>
        <linearGradient id="linearGradient-7" y2="-11.381847%" x2="46.6938776%" y1="106.956871%" x1="51.1466702%">
            <stop offset="0%" stop-color="#A2ABB9"></stop>
            <stop offset="100%" stop-color="#E7EAF0"></stop>
        </linearGradient>
        <linearGradient id="linearGradient-8" y2="17.1977244%" x2="50%" y1="80.5875542%" x1="88.5783653%">
            <stop offset="0%" stop-color="#A2ABB9"></stop>
            <stop offset="100%" stop-color="#E7EAF0"></stop>
        </linearGradient>
        <linearGradient id="linearGradient-9" y2="22.4894805%" x2="40.5847582%" y1="56.5887107%" x1="67.3003511%">
            <stop offset="0%" stop-color="#A2ABB9"></stop>
            <stop offset="100%" stop-color="#E7EAF0"></stop>
        </linearGradient>
        <linearGradient id="linearGradient-10" y2="4.48907403%" x2="50%" y1="152.942986%" x1="100%">
            <stop offset="0%" stop-color="#A2ABB9"></stop>
            <stop offset="100%" stop-color="#E7EAF0"></stop>
        </linearGradient>
        <linearGradient id="linearGradient-11" y2="0%" x2="0%" y1="182.341652%" x1="199.68365%">
            <stop offset="0%" stop-color="#A2ABB9"></stop>
            <stop offset="100%" stop-color="#E7EAF0"></stop>
        </linearGradient>
        <linearGradient id="linearGradient-12" y2="-30.0804482%" x2="50%" y1="100%" x1="50%">
            <stop offset="0%" stop-color="#A2ABB9"></stop>
            <stop offset="100%" stop-color="#E7EAF0"></stop>
        </linearGradient>
    </defs>
    <g fill-rule="evenodd" fill="none" stroke-width="1" stroke="none" id="暂无信号">
        <path opacity="0.60159418" fill="#F3F3FA" id="背景" d="M297.367308,77 C348.402047,77 395.459601,93.7621592 433.168202,121.998683 L418,122 C410.820298,122 405,127.820298 405,135 L405,135 L405,136 C405,143.179702 410.820298,149 418,149 L418,149 L463.178198,148.999242 C471.748983,158.235916 479.533899,168.191223 486.428804,178.762649 L507.876923,178.762791 C515.60891,178.762791 521.876923,185.030804 521.876923,192.762791 L521.876923,193.544186 C521.876923,199.932 517.59881,205.320607 511.751467,207.001125 L492,207 C483.163444,207 476,214.163444 476,223 L476,223 L476,228 C476,236.836556 483.163444,244 492,244 L492,244 L559.901402,243.999959 C566.852284,245.741603 572,252.03011 572,259.52093 L572,260.413953 C572,269.250509 564.836556,276.413953 556,276.413953 L520.819517,276.412835 C521.518998,283.515523 521.876923,290.716616 521.876923,298 C521.876923,420.05493 421.360544,519 297.367308,519 C198.189346,519 114.031537,455.696384 84.3182822,367.897256 L75.8924419,367.897674 C72.4862578,367.897674 69.725,365.136417 69.725,361.730233 C69.725,359.131567 71.3322058,356.908285 73.6068281,356.000174 L84,356 C91.1797017,356 97,350.179702 97,343 L97,343 L97,342 C97,334.820298 91.1797017,329 84,329 L84,329 L75.0490717,329.000249 C75.0414555,328.94684 75.0338587,328.893426 75.0262812,328.840005 L52.8540698,328.837209 C47.1770963,328.837209 42.575,324.235113 42.575,318.55814 C42.575,312.881166 47.1770963,308.27907 52.8540698,308.27907 L73.0963108,308.280676 C72.9378097,304.873341 72.8576923,301.445881 72.8576923,298 C72.8576923,265.369974 80.0416047,234.391611 92.9374566,206.513874 L57,206.516279 C41.536027,206.516279 29,193.980252 29,178.516279 L29,176.953488 C29,162.030754 40.6738617,149.834597 55.387455,148.999146 L182,149 C187.522847,149 192,144.522847 192,139 C192,133.477153 187.522847,129 182,129 L182,129 L152.69142,128.999011 C152.935414,128.796407 153.179853,128.594307 153.424735,128.392711 L138.848077,128.395349 C128.354667,128.395349 119.848077,119.888759 119.848077,109.395349 L119.848077,108.334884 C119.848077,97.8414735 128.354667,89.3348837 138.848077,89.3348837 L223.230522,89.3331487 C246.439795,81.3435511 271.388251,77 297.367308,77 Z"></path>
        <path fill-rule="nonzero" fill="url(#linearGradient-1)" id="路径" d="M445.379464,162.3125 C445.379464,168.25 439.81942,173 432.796205,173 L393.875893,173 C386.852679,172.525 381,168.0125 381,161.8375 C381,157.8 383.633705,154.2375 387.437946,152.3375 C387.145312,151.625 386.852679,150.9125 386.852679,150.2 C386.852679,146.1625 390.65692,142.6 395.631696,142.6 C397.680134,142.6 399.435937,143.3125 400.899107,144.2625 C404.410714,138.8 410.848661,135 418.457143,135 C428.991964,135 437.478348,142.3625 437.478348,151.3875 L437.478348,152.3375 C442.160491,154 445.379464,157.8 445.379464,162.3125 Z"></path>
        <g fill-rule="nonzero" transform="translate(122.000000, 350.000000)" id="树">
            <path fill="url(#linearGradient-2)" id="路径" d="M58.0342261,43.3864542 C58.1512897,43.8539178 58.297619,44.3505977 58.4732143,44.876494 L58.8244047,46.2788845 C58.9414682,46.746348 59,47.1261621 59,47.4183267 C59,49.0544489 58.5610119,50.500664 57.6830357,51.7569721 C56.8050595,53.0132802 55.6636905,53.933599 54.2589286,54.5179283 C53.7321429,54.5763612 53.1760913,54.6055777 52.5907738,54.6055777 C52.1225198,54.6640106 51.5957341,54.693227 51.0104167,54.693227 L49.3422619,54.693227 L35.6458333,54.8685259 L35.6458333,69.505976 C35.6458333,71.6679947 35.6897321,73.8446215 35.7775297,76.0358565 C35.8653273,78.2270916 35.9677579,80.1992032 36.0848214,81.9521912 C36.2018849,84.0557769 36.3482143,86.0717131 36.5238095,88 L23.8809524,88 L24.1443452,84.5816733 C24.202877,83.2377159 24.2614087,81.4116866 24.3199405,79.1035857 C24.3784723,76.7954847 24.4077382,73.7131474 24.4077381,69.8565737 L24.4077381,56.4462151 C23.4126984,57.3227092 22.3005953,57.7609562 21.0714286,57.7609562 C20.0763889,57.7609562 19.2130457,57.5272244 18.4813989,57.0597609 C17.749752,56.5922974 17.1498016,55.9495352 16.6815476,55.1314741 L6.7604167,54.6055777 C4.82886905,54.1381142 3.21924603,53.1593625 1.93154762,51.6693227 C0.643849205,50.1792828 0,48.4116866 0,46.3665339 C0,46.0159362 0.0292658638,45.6945551 0.0877975915,45.4023904 C0.146329319,45.1102257 0.234126939,44.818061 0.351190452,44.5258964 L2.54613093,39.4422311 C2.66319444,38.1567065 3.02901785,36.9588314 3.64360117,35.8486056 C4.25818448,34.7383798 5.0337301,33.7742364 5.97023803,32.9561753 L19.7544642,7.45019919 L19.8422618,7.45019919 C20.954365,5.40504648 22.2713292,3.65205843 23.7931546,2.19123506 C25.31498,0.730411687 27.2757935,0 29.6755951,0 C31.7827379,0 33.6703867,0.55511288 35.3385415,1.66533864 C37.0066963,2.7755644 38.2504959,4.23638777 39.0699404,6.04780876 L50.1324403,27.6972112 C52.1225197,28.3984064 53.7614086,29.625498 55.049107,31.378486 C56.3368054,33.131474 56.9806546,35.1474103 56.9806546,37.4262948 C56.9806546,38.3612217 56.8343252,39.3545816 56.5416665,40.4063745 L58.0342261,43.3864542 Z"></path>
            <path fill="url(#linearGradient-2)" id="路径" d="M368.034226,43.3864542 C368.15129,43.8539178 368.297619,44.3505977 368.473214,44.876494 L368.824405,46.2788845 C368.941468,46.746348 369,47.1261621 369,47.4183267 C369,49.0544489 368.561012,50.500664 367.683036,51.7569721 C366.805059,53.0132802 365.66369,53.933599 364.258929,54.5179283 C363.732143,54.5763612 363.176091,54.6055777 362.590774,54.6055777 C362.12252,54.6640106 361.595734,54.693227 361.010417,54.693227 L359.342262,54.693227 L345.645833,54.8685259 L345.645833,69.505976 C345.645833,71.6679947 345.689732,73.8446215 345.77753,76.0358565 C345.865327,78.2270916 345.967758,80.1992032 346.084821,81.9521912 C346.201885,84.0557769 346.348214,86.0717131 346.52381,88 L333.880952,88 L334.144345,84.5816733 C334.202877,83.2377159 334.261409,81.4116866 334.319941,79.1035857 C334.378472,76.7954847 334.407738,73.7131474 334.407738,69.8565737 L334.407738,56.4462151 C333.412698,57.3227092 332.300595,57.7609562 331.071429,57.7609562 C330.076389,57.7609562 329.213046,57.5272244 328.481399,57.0597609 C327.749752,56.5922974 327.149802,55.9495352 326.681548,55.1314741 L316.760417,54.6055777 C314.828869,54.1381142 313.219246,53.1593625 311.931548,51.6693227 C310.643849,50.1792828 310,48.4116866 310,46.3665339 C310,46.0159362 310.029266,45.6945551 310.087798,45.4023904 C310.146329,45.1102257 310.234127,44.818061 310.35119,44.5258964 L312.546131,39.4422311 C312.663194,38.1567065 313.029018,36.9588314 313.643601,35.8486056 C314.258184,34.7383798 315.03373,33.7742364 315.970238,32.9561753 L329.754464,7.45019919 L329.842262,7.45019919 C330.954365,5.40504648 332.271329,3.65205843 333.793155,2.19123506 C335.31498,0.730411687 337.275793,0 339.675595,0 C341.782738,0 343.670387,0.55511288 345.338542,1.66533864 C347.006696,2.7755644 348.250496,4.23638777 349.06994,6.04780876 L360.13244,27.6972112 C362.12252,28.3984064 363.761409,29.625498 365.049107,31.378486 C366.336805,33.131474 366.980655,35.1474103 366.980655,37.4262948 C366.980655,38.3612217 366.834325,39.3545816 366.541666,40.4063745 L368.034226,43.3864542 Z"></path>
            <path fill="url(#linearGradient-3)" id="路径" d="M331.247024,53.0189244 C331.338294,53.3854582 331.452381,53.7749005 331.589286,54.187251 L331.863095,55.2868526 C331.954365,55.6533865 332,55.9511952 332,56.1802789 C332,57.4631474 331.657738,58.5971116 330.973214,59.5821713 C330.28869,60.5672311 329.39881,61.2888446 328.303571,61.747012 C327.892857,61.7928287 327.459325,61.815737 327.002976,61.815737 C326.637897,61.8615538 326.227183,61.8844621 325.770833,61.8844621 L324.470238,61.8844621 L313.791667,62.0219123 L313.791667,73.4990039 C313.791667,75.1942231 313.825893,76.9008964 313.894345,78.6190239 C313.962798,80.3371514 314.042659,81.8834661 314.133929,83.2579681 C314.225198,84.9073705 314.339286,86.4880478 314.47619,88 L304.619048,88 L304.824405,85.3197211 C304.87004,84.2659363 304.915675,82.8341634 304.96131,81.0244024 C305.006945,79.2146414 305.029762,76.7978088 305.029762,73.7739044 L305.029762,63.2589642 C304.253968,63.9462152 303.386905,64.2898407 302.428571,64.2898407 C301.652778,64.2898407 300.979663,64.1065737 300.409226,63.7400398 C299.83879,63.3735059 299.371032,62.8695219 299.005952,62.2280876 L291.270833,61.815737 C289.764881,61.4492032 288.509921,60.6817729 287.505952,59.5134462 C286.501984,58.3451195 286,56.9591633 286,55.3555777 C286,55.0806773 286.022817,54.8286852 286.068452,54.5996016 C286.114087,54.3705179 286.18254,54.1414342 286.27381,53.9123506 L287.985119,49.9262948 C288.076389,48.9183267 288.361607,47.9790837 288.840774,47.1085658 C289.31994,46.2380478 289.924603,45.4820717 290.654762,44.8406374 L301.401786,24.8416335 L301.470238,24.8416335 C302.337301,23.2380478 303.364087,21.8635458 304.550595,20.7181275 C305.737103,19.5727092 307.265873,19 309.136905,19 C310.779762,19 312.251488,19.435259 313.552083,20.3057769 C314.852678,21.1762948 315.822421,22.3217131 316.461309,23.7420319 L325.086309,40.7171315 C326.637897,41.2669323 327.915674,42.2290837 328.919643,43.6035856 C329.923611,44.9780876 330.425595,46.5587649 330.425595,48.3456175 C330.425595,49.0786852 330.311508,49.8575697 330.083333,50.6822709 L331.247024,53.0189244 Z"></path>
        </g>
        <path fill="#E7EAF0" id="形状结合" d="M284.5,415 C345.879626,415 401.152405,420.00678 439.78802,428.003897 C477.575063,428.25539 508,439.574053 508,453.5 C508,464.536605 488.890416,473.935603 462.149089,477.485699 C455.766823,479.373982 448.582636,481.153843 440.691453,482.807922 C440.896873,483.861698 441,484.926358 441,486 C441,510.300529 388.1696,530 323,530 C264.367989,530 215.723701,514.054651 206.554085,493.159086 C128.319357,487.218328 73,472.596236 73,455.5 C73,433.132468 167.691775,415 284.5,415 Z"></path>
        <path fill-rule="nonzero" fill="url(#linearGradient-4)" id="路径" d="M214,170.9375 C214,178.75 206.054545,185 196.018182,185 L140.4,185 C130.363636,184.375 122,178.4375 122,170.3125 C122,165 125.763636,160.3125 131.2,157.8125 C130.781818,156.875 130.363636,155.9375 130.363636,155 C130.363636,149.6875 135.8,145 142.909091,145 C145.836364,145 148.345455,145.9375 150.436364,147.1875 C155.454545,140 164.654545,135 175.527273,135 C190.581818,135 202.709091,144.6875 202.709091,156.5625 L202.709091,157.8125 C209.4,160 214,165 214,170.9375 Z"></path>
        <g fill-rule="nonzero" transform="translate(148.862915, 186.502525)">
            <polygon points="378.137085 333.997475 251.137085 368.754296 154.637085 283.997475 210.137085 275.497475" opacity="0.5" fill="url(#linearGradient-5)" id="路径"></polygon>
            <path fill="url(#linearGradient-6)" id="形状结合" d="M176.637085,256.596218 C194.265157,256.596218 208.805285,260.04519 210.882588,264.497514 L211.137085,264.497475 L211.137085,277.497475 L211.134085,277.497218 L211.137085,277.596218 C211.137085,282.517075 195.998288,286.515535 177.207606,286.595012 L176.637085,286.596218 C157.583261,286.596218 142.137085,282.56678 142.137085,277.596218 C142.137085,277.563192 142.137767,277.530207 142.139127,277.497266 L142.137085,277.497475 L142.137085,264.497475 L142.391582,264.497514 C144.468885,260.04519 159.009013,256.596218 176.637085,256.596218 Z"></path>
            <polygon points="178.342301 262.367438 183.090714 265.101573 190.342301 262.367438 190.342301 195.101573 178.342301 195.101573" fill="#A2ABB9" id="路径"></polygon>
            <rect height="70" width="18" y="194.84075" x="164.631876" fill="url(#linearGradient-7)" id="矩形"></rect>
            <path fill="url(#linearGradient-8)" id="路径" d="M200.063411,69.6970503 C236.161643,105.796802 236.161643,164.32291 200.063411,200.422661 C163.965178,236.522412 105.441532,236.522412 69.3432996,200.422661 C67.3595677,198.438846 65.4895982,196.383926 63.7191708,194.279233 C62.7095295,193.070457 61.7354389,191.840349 60.7897889,190.59602 C51.1413151,173.81536 68.4758613,135.916665 102.01444,102.376675 C135.553018,68.8366859 173.450119,51.5014105 190.230073,61.1502902 C191.474349,62.0888695 192.697295,63.0630011 193.913131,64.0797953 C196.031955,65.8431868 198.086789,67.7132349 200.063411,69.6970503 Z"></path>
            <path transform="translate(124.115665, 126.915025) rotate(13.000000) translate(-124.115665, -126.915025)" fill="url(#linearGradient-9)" id="路径" d="M176.003245,50.9394951 C176.1109,51.0971414 176.212889,51.2464906 176.314877,51.4207312 C187.357992,68.8282051 173.544183,116.146996 145.151652,157.715844 C116.75912,199.284693 84.4513536,219.521503 72.5639995,203.350309 C72.4450126,203.200959 72.3430239,203.05161 72.2353691,202.893964 C71.4534554,201.748954 70.7905286,200.471189 70.2295905,199.060669 C62.5407728,179.479335 76.3545809,135.255391 103.081297,96.1176147 C129.808012,56.9798387 160.008011,36.7513253 173.379868,48.0105922 C174.348761,48.8237154 175.221332,49.8027821 176.003245,50.9394951 Z"></path>
            <polygon points="160.341161 138.979029 144.175525 154.794027 100.666793 103.819301 107.240005 97.8614734" transform="translate(130.503977, 126.327750) rotate(-4.000000) translate(-130.503977, -126.327750)" fill="url(#linearGradient-10)" id="路径"></polygon>
            <circle r="11.5" cy="95.7960662" cx="95.9528454" transform="translate(95.952845, 95.796066) rotate(-4.000000) translate(-95.952845, -95.796066)" fill="url(#linearGradient-11)" id="椭圆形"></circle>
            <path transform="translate(56.568542, 56.568542) rotate(-45.000000) translate(-56.568542, -56.568542)" fill="url(#linearGradient-12)" id="形状" d="M46.1518061,90.1720903 C45.2634924,89.2816594 44.7644126,88.0737594 44.7644126,86.8142448 C44.7644126,85.5547302 45.2634924,84.3468302 46.1518061,83.4563993 L49.4991273,80.0997408 L46.1518061,76.7430822 C44.3024781,74.8885954 44.3024781,71.8818782 46.1518062,70.0273914 C48.0011343,68.1729046 50.9994876,68.1729046 52.8488157,70.0273913 L56.1961369,73.3864237 L59.5434581,70.0273913 C61.3927862,68.1722489 64.3916695,68.1717175 66.2416513,70.0262043 C68.0916332,71.8806912 68.0921631,74.8879399 66.242835,76.7430822 L62.8931465,80.1044886 L66.242835,83.4611471 C68.092163,85.3162895 68.0916331,88.3235381 66.2416512,90.1780249 C64.3916694,92.0325118 61.3927862,92.0319804 59.5434581,90.1768381 L56.1937696,86.8178057 L52.851183,90.1744642 C51.9632291,91.0652559 50.7586891,91.5657278 49.5026782,91.5657278 C48.2466673,91.5657278 47.0421273,91.0652559 46.1541734,90.1744642 L46.1518061,90.1720903 Z M28.2055248,67.5205798 C25.3571469,65.8147191 24.4257881,62.1171423 26.1246936,59.2594965 C32.3792368,50.462734 42.0089446,44.6803207 52.6949431,43.304686 C60.8596607,42.4263524 73.3115061,44.2993394 86.3101911,58.229235 C88.4994489,60.670204 88.3379229,64.4192106 85.9468767,66.6617347 C83.5558305,68.9042587 79.8148146,68.8153839 77.5323503,66.4618318 C69.8174141,58.1936269 61.8941582,54.4357835 53.9803712,55.2856306 C47.0531544,56.2822135 40.7747044,59.915612 36.4483624,65.4315702 C35.631864,66.8037704 34.3052155,67.794508 32.7602687,68.1858288 C31.2153219,68.5771496 29.5786327,68.3369982 28.2102593,67.5182059 L28.2055248,67.5205798 Z M91.4116601,50.4500483 C79.1752364,38.7420992 66.6949837,33.0970256 54.318891,33.6643816 C36.1595552,34.5047331 23.5301646,48.4607414 22.1524129,50.0441157 C20.7508034,51.6957709 18.5721285,52.464576 16.4479341,52.0570972 C14.3237397,51.6496184 12.5818485,50.1287411 11.887097,48.0749463 C11.1923455,46.0211514 11.6519533,43.7513971 13.0904996,42.131992 C15.9051847,38.8892794 31.0983299,22.666221 53.7649496,21.6217163 C69.5428107,20.8929368 85.0129266,27.6584791 99.7089448,41.7308072 C101.261732,43.2175329 101.905613,45.4220369 101.398046,47.5139038 C100.890479,49.6057707 99.3085743,51.2671962 97.2482202,51.8723374 C95.1878662,52.4774786 92.9620796,51.9344001 91.4092928,50.4476743 L91.4116601,50.4500483 Z"></path>
        </g>
    </g>
</svg>