<?xml version="1.0" standalone="no"?><!DOCTYPE svg PUBLIC "-//W3C//DTD SVG 1.1//EN" "http://www.w3.org/Graphics/SVG/1.1/DTD/svg11.dtd"><svg t="1646294631458" class="icon" viewBox="0 0 1024 1024" version="1.1" xmlns="http://www.w3.org/2000/svg" p-id="6157" xmlns:xlink="http://www.w3.org/1999/xlink" width="200" height="200"><defs><style type="text/css"></style></defs><path d="M840.106667 345.173333c-30.293333-14.933333-65.28-23.04-102.4-24.32 1.706667-1.28 3.413333-2.56 5.12-3.413333 8.96-5.546667 14.08-14.933333 14.933333-24.746667l0.426667-6.4 14.933333-0.426666c8.106667 0 15.786667-3.413333 21.333333-8.96 33.28-32 59.306667-58.453333 68.693334-69.546667 8.106667-10.24 12.373333-21.333333 12.373333-32.426667 0-13.653333-5.12-26.026667-14.506667-35.413333-54.186667-54.186667-124.586667-68.693333-193.706666-39.68-43.52 18.346667-83.2 50.773333-114.346667 95.146667-17.493333 24.746667-31.146667 52.053333-41.813333 81.066666-10.24-29.013333-23.893333-56.32-41.386667-81.066666-31.146667-44.373333-70.826667-76.8-114.346667-95.146667-69.12-29.013333-139.52-14.506667-193.706666 39.68-9.386667 9.386667-14.506667 21.76-14.506667 34.986667 0 11.52 4.266667 22.613333 12.8 32.853333 8.96 11.093333 34.986667 37.546667 68.266667 69.546667 5.546667 5.546667 13.226667 8.96 21.333333 8.96l14.933333 0.426666 0.426667 6.4c0.853333 9.813333 5.973333 19.2 14.933333 24.746667 1.706667 1.28 3.413333 2.133333 5.12 3.413333-36.693333 1.706667-71.253333 9.813333-101.12 24.32-67.413333 32.853333-103.253333 95.573333-98.133333 171.52 0.853333 13.653333 6.826667 26.026667 17.066667 34.56 8.533333 7.68 19.626667 11.52 32.853333 11.946667 18.346667 0.853333 33.28 1.28 46.08 1.28 27.733333 0 44.373333-2.56 58.453333-10.666667 8.96-5.12 17.493333-11.946667 25.173334-19.626666 8.533333 4.266667 17.066667 7.253333 26.453333 8.96 23.893333 4.693333 39.253333-0.853333 58.88-8.533334 8.96-3.413333 20.906667-8.106667 37.12-12.8 10.666667-3.413333 20.48-7.68 30.72-11.946666l-27.733333 374.613333c-0.853333 13.653333 3.413333 27.306667 13.653333 39.253333 9.813333 9.386667 22.613333 14.933333 35.84 14.933334h142.933333c13.226667 0 26.026667-5.546667 37.12-16.64 8.533333-9.386667 12.8-21.76 12.8-37.12l-28.16-373.76c10.666667 4.266667 21.333333 8.106667 32.853334 11.093333 16.64 3.84 42.24 10.24 75.093333 19.2 6.826667 1.706667 14.08 1.28 20.906667-1.706667l24.32-10.666666 19.2 21.76c5.973333 6.4 14.08 10.24 22.613333 10.24 35.84 1.706667 63.573333 2.133333 79.36 2.133333h8.96c13.226667-0.426667 24.32-4.266667 32.853333-11.946667 10.24-8.533333 16.213333-20.906667 17.066667-34.56 5.12-75.946667-30.72-138.666667-98.133333-171.52z m-355.84 144.64h2.133333c9.386667 0 17.92-3.84 25.6-8.96 7.68 5.12 16.64 8.96 25.6 8.96h1.706667l5.973333 77.653334h-66.986667l5.973334-77.653334z m-10.666667 141.653334h76.373333l8.533334 112.213333c-0.853333 0-1.706667-0.853333-2.56-0.853333h-87.893334c-0.853333 0-1.706667 0.853333-2.56 0.853333l8.106667-112.213333z m-17.92 243.2l5.12-69.12c2.56 0.426667 4.693333 1.28 7.253333 1.28h87.893334c2.56 0 4.693333-0.853333 7.253333-1.28l5.12 69.12h-112.64z" p-id="6158"></path></svg>