<?xml version="1.0" standalone="no"?><!DOCTYPE svg PUBLIC "-//W3C//DTD SVG 1.1//EN" "http://www.w3.org/Graphics/SVG/1.1/DTD/svg11.dtd"><svg t="1646207932974" class="icon" viewBox="0 0 1024 1024" version="1.1" xmlns="http://www.w3.org/2000/svg" p-id="17701" xmlns:xlink="http://www.w3.org/1999/xlink" width="200" height="200"><defs><style type="text/css"></style></defs><path d="M512 0c283.428571 0 512 228.571429 512 512S795.428571 1024 512 1024 0 795.428571 0 512 228.571429 0 512 0z" fill="#FF5967" p-id="17702"></path><path d="M751.542857 323.657143l10.971429 499.2-210.285715-62.171429-12.8-85.942857 212.114286-351.085714z m-453.485714 0l-16.457143 458.971428 219.428571-21.942857-9.142857-87.771428-193.828571-349.257143z" fill="#312B28" p-id="17703"></path><path d="M512 897.828571c104.228571 0 199.314286-34.742857 274.285714-93.257142-10.971429-14.628571-29.257143-32.914286-60.342857-47.542858-47.542857-23.771429-102.4-23.771429-102.4-23.771428L508.342857 768l-89.6-36.571429s-62.171429 3.657143-106.057143 29.257143c-31.085714 18.285714-53.028571 40.228571-64 51.2 74.971429 54.857143 166.4 85.942857 263.314286 85.942857z" fill="#F7F9FB" p-id="17704"></path><path d="M469.942857 654.628571h98.742857v67.657143l109.714286 16.457143s-69.485714 45.714286-162.742857 45.714286c-80.457143 0-142.628571-47.542857-142.628572-47.542857l96.914286-16.457143v-65.828572z" fill="#F4D2B8" p-id="17705"></path><path d="M321.828571 272.457143l-3.657142 98.742857s5.485714 78.628571 14.628571 131.657143c7.314286 36.571429 21.942857 65.828571 45.714286 100.571428 36.571429 47.542857 104.228571 84.114286 137.142857 84.114286 34.742857 0 93.257143-31.085714 129.828571-73.142857 21.942857-25.6 54.857143-71.314286 60.342857-104.228571 10.971429-69.485714 18.285714-186.514286 18.285715-186.514286L658.285714 235.885714l-336.457143 36.571429z" fill="#FFE0C7" p-id="17706"></path><path d="M510.171429 122.514286c-177.371429 0-212.114286 148.114286-212.114286 195.657143 0 73.142857-7.314286 175.542857-7.314286 175.542857s18.285714-69.485714 18.285714-65.828572c1.828571 12.8 3.657143 42.057143 3.657143 42.057143 3.657143-1.828571 29.257143 14.628571 29.257143 14.628572l-1.828571-111.542858s51.2 1.828571 95.085714-18.285714c36.571429-18.285714 42.057143-85.942857 42.057143-85.942857s21.942857 78.628571 74.971428 91.428571c51.2 12.8 137.142857-12.8 144.457143 23.771429 10.971429 51.2 5.485714 74.971429 1.828572 107.885714l21.942857-12.8s3.657143-31.085714 5.485714-42.057143c1.828571-18.285714 12.8 47.542857 12.8 45.714286 0-14.628571 14.628571-82.285714 14.628572-159.085714-1.828571-96.914286-87.771429-201.142857-243.2-201.142857z" fill="#312B28" p-id="17707"></path><path d="M330.971429 429.714286s-7.314286-21.942857-25.6-10.971429c-10.971429 7.314286-10.971429 36.571429-7.314286 51.2 5.485714 20.114286 14.628571 27.428571 21.942857 32.914286 7.314286 3.657143 16.457143 3.657143 16.457143 3.657143l-5.485714-76.8z m385.828571-14.628572s9.142857-1.828571 18.285714 3.657143c10.971429 5.485714 10.971429 36.571429 7.314286 51.2-5.485714 20.114286-14.628571 27.428571-21.942857 32.914286-7.314286 3.657143-18.285714 5.485714-18.285714 3.657143l14.628571-91.428572z" fill="#FFE0C7" p-id="17708"></path><path d="M519.314286 607.085714c-16.457143 0-31.085714-5.485714-43.885715-16.457143 0 0-1.828571-1.828571-1.828571-3.657142s0-1.828571 1.828571-3.657143 5.485714-1.828571 7.314286 0c20.114286 18.285714 53.028571 18.285714 73.142857 0 0 0 1.828571-1.828571 3.657143-1.828572s1.828571 0 3.657143 1.828572c0 0 1.828571 1.828571 1.828571 3.657143s0 1.828571-1.828571 3.657142c-12.8 10.971429-29.257143 16.457143-43.885714 16.457143z" fill="#EAC3A9" p-id="17709"></path></svg>